<?xml version="1.0" encoding="UTF-8" standalone="no"?>
<!-- Created with Inkscape (http://www.inkscape.org/) -->

<svg
   xmlns:dc="http://purl.org/dc/elements/1.1/"
   xmlns:cc="http://creativecommons.org/ns#"
   xmlns:rdf="http://www.w3.org/1999/02/22-rdf-syntax-ns#"
   xmlns:svg="http://www.w3.org/2000/svg"
   xmlns="http://www.w3.org/2000/svg"
   xmlns:sodipodi="http://sodipodi.sourceforge.net/DTD/sodipodi-0.dtd"
   xmlns:inkscape="http://www.inkscape.org/namespaces/inkscape"
   version="1.1"
   id="svg850"
   xml:space="preserve"
   width="159.84665"
   height="118.55277"
   viewBox="0 0 159.84665 118.55277"
   sodipodi:docname="cmmid_newlogo.svg"
   inkscape:version="0.92.4 (5da689c313, 2019-01-14)"
   inkscape:export-filename="/Users/julian/Desktop/cmmid_newlogo.png"
   inkscape:export-xdpi="300"
   inkscape:export-ydpi="300"><metadata
     id="metadata856"><rdf:RDF><cc:Work
         rdf:about=""><dc:format>image/svg+xml</dc:format><dc:type
           rdf:resource="http://purl.org/dc/dcmitype/StillImage" /><dc:title></dc:title></cc:Work></rdf:RDF></metadata><defs
     id="defs854" /><sodipodi:namedview
     pagecolor="#888888"
     bordercolor="#666666"
     borderopacity="1"
     objecttolerance="10"
     gridtolerance="10"
     guidetolerance="10"
     inkscape:pageopacity="1"
     inkscape:pageshadow="2"
     inkscape:window-width="1850"
     inkscape:window-height="1016"
     id="namedview852"
     showgrid="false"
     showguides="true"
     inkscape:guide-bbox="true"
     inkscape:zoom="5.4303739"
     inkscape:cx="79.272617"
     inkscape:cy="58.262189"
     inkscape:window-x="70"
     inkscape:window-y="27"
     inkscape:window-maximized="0"
     inkscape:current-layer="g860"
     fit-margin-top="0"
     fit-margin-left="0"
     fit-margin-right="0"
     fit-margin-bottom="0"><sodipodi:guide
       position="189.2565,106.71044"
       orientation="1,0"
       id="guide1350"
       inkscape:locked="false" /></sodipodi:namedview><g
     id="g858"
     inkscape:groupmode="layer"
     inkscape:label="cmmid_logo"
     transform="matrix(1.3333333,0,0,-1.3333333,-21.778685,122.33196)"><g
       id="g860"><path
         d="m 82.672,70.048 c -0.016,-0.047 -0.039,-0.09 -0.063,-0.133 0.024,0.043 0.047,0.086 0.063,0.133"
         style="fill:#ffffff;fill-opacity:1;fill-rule:nonzero;stroke:none"
         id="path862"
         inkscape:connector-curvature="0" /><path
         d="m 70.125,77.505 c 0.023,0.023 0.047,0.043 0.07,0.066 -0.023,-0.023 -0.047,-0.043 -0.07,-0.066"
         style="fill:#ffffff;fill-opacity:1;fill-rule:nonzero;stroke:none"
         id="path864"
         inkscape:connector-curvature="0" /><path
         d="m 82.73,70.356 c 0.004,0.184 -0.05,0.371 -0.164,0.527 -0.007,0.012 -0.019,0.028 -0.027,0.04 -0.031,0.027 -0.062,0.054 -0.094,0.085 0.188,-0.171 0.285,-0.41 0.285,-0.652"
         style="fill:#ffffff;fill-opacity:1;fill-rule:nonzero;stroke:none"
         id="path866"
         inkscape:connector-curvature="0" /><path
         d="m 70.094,77.473 c -0.028,-0.039 -0.059,-0.074 -0.082,-0.113 0.027,0.039 0.054,0.074 0.082,0.113"
         style="fill:#ffffff;fill-opacity:1;fill-rule:nonzero;stroke:none"
         id="path868"
         inkscape:connector-curvature="0" /><path
         d="m 82.711,70.184 c -0.004,-0.031 -0.016,-0.066 -0.027,-0.097 0.011,0.031 0.023,0.062 0.027,0.097"
         style="fill:#ffffff;fill-opacity:1;fill-rule:nonzero;stroke:none"
         id="path870"
         inkscape:connector-curvature="0" /><path
         d="m 70.34,77.673 c 0.207,0.109 0.461,0.136 0.699,0.054 -0.043,0.016 -0.082,0.028 -0.121,0.039 -0.016,0.004 -0.031,0.004 -0.047,0.008 -0.187,0.024 -0.371,-0.016 -0.531,-0.101"
         style="fill:#ffffff;fill-opacity:1;fill-rule:nonzero;stroke:none"
         id="path872"
         inkscape:connector-curvature="0" /><path
         d="m 92.871,48.571 c -0.012,-0.055 -0.023,-0.106 -0.043,-0.16 0.02,0.051 0.031,0.105 0.043,0.16"
         style="fill:#ffffff;fill-opacity:1;fill-rule:nonzero;stroke:none"
         id="path874"
         inkscape:connector-curvature="0" /><path
         d="m 92.809,48.372 c -0.016,-0.039 -0.032,-0.074 -0.055,-0.114 0.023,0.04 0.039,0.075 0.055,0.114"
         style="fill:#ffffff;fill-opacity:1;fill-rule:nonzero;stroke:none"
         id="path876"
         inkscape:connector-curvature="0" /><path
         d="m 92.723,48.215 c -0.02,-0.031 -0.043,-0.062 -0.067,-0.085 0.024,0.023 0.047,0.054 0.067,0.085"
         style="fill:#ffffff;fill-opacity:1;fill-rule:nonzero;stroke:none"
         id="path878"
         inkscape:connector-curvature="0" /><path
         d="m 91.172,37.735 c 0.035,-0.059 0.055,-0.125 0.074,-0.187 0,-0.004 0,-0.004 0.004,-0.004 -0.02,0.066 -0.043,0.129 -0.078,0.191"
         style="fill:#ffffff;fill-opacity:1;fill-rule:nonzero;stroke:none"
         id="path880"
         inkscape:connector-curvature="0" /><path
         d="m 92.613,48.083 c -0.027,-0.024 -0.054,-0.047 -0.082,-0.067 0.028,0.02 0.055,0.043 0.082,0.067"
         style="fill:#ffffff;fill-opacity:1;fill-rule:nonzero;stroke:none"
         id="path882"
         inkscape:connector-curvature="0" /><path
         d="m 82.73,70.333 c 0,-0.035 -0.003,-0.075 -0.011,-0.11 0.008,0.035 0.011,0.075 0.011,0.11"
         style="fill:#ffffff;fill-opacity:1;fill-rule:nonzero;stroke:none"
         id="path884"
         inkscape:connector-curvature="0" /><path
         d="m 91.16,37.758 c -0.015,0.032 -0.035,0.059 -0.058,0.086 0.023,-0.027 0.043,-0.054 0.058,-0.086"
         style="fill:#ffffff;fill-opacity:1;fill-rule:nonzero;stroke:none"
         id="path886"
         inkscape:connector-curvature="0" /><path
         d="m 90.98,37.977 c -0.035,0.031 -0.07,0.059 -0.109,0.086 0.039,-0.027 0.074,-0.055 0.109,-0.086"
         style="fill:#ffffff;fill-opacity:1;fill-rule:nonzero;stroke:none"
         id="path888"
         inkscape:connector-curvature="0" /><path
         d="m 91.012,37.95 c 0.023,-0.024 0.047,-0.047 0.066,-0.07 -0.019,0.023 -0.043,0.046 -0.066,0.07"
         style="fill:#ffffff;fill-opacity:1;fill-rule:nonzero;stroke:none"
         id="path890"
         inkscape:connector-curvature="0" /><path
         d="m 88.996,62.028 c -0.012,0.004 -0.023,0.004 -0.035,0.008 0.012,-0.004 0.023,-0.004 0.035,-0.008"
         style="fill:#ffffff;fill-opacity:1;fill-rule:nonzero;stroke:none"
         id="path892"
         inkscape:connector-curvature="0" /><path
         d="m 89.324,61.868 c 0.004,-0.004 0.008,-0.008 0.012,-0.008 -0.004,0 -0.008,0.004 -0.012,0.008"
         style="fill:#ffffff;fill-opacity:1;fill-rule:nonzero;stroke:none"
         id="path894"
         inkscape:connector-curvature="0" /><path
         d="m 89.457,61.731 c 0.043,-0.047 0.078,-0.101 0.109,-0.16 -0.015,0.027 -0.031,0.059 -0.046,0.09 -0.016,0.019 -0.032,0.035 -0.047,0.054 -0.004,0.008 -0.012,0.012 -0.016,0.016"
         style="fill:#ffffff;fill-opacity:1;fill-rule:nonzero;stroke:none"
         id="path896"
         inkscape:connector-curvature="0" /><path
         d="m 89.184,61.954 c -0.008,0.008 -0.02,0.011 -0.028,0.015 0.008,-0.004 0.02,-0.007 0.028,-0.015"
         style="fill:#ffffff;fill-opacity:1;fill-rule:nonzero;stroke:none"
         id="path898"
         inkscape:connector-curvature="0" /><path
         d="m 92.176,47.852 c -0.055,-0.012 -0.114,-0.015 -0.172,-0.015 0.058,0 0.117,0.003 0.172,0.015"
         style="fill:#ffffff;fill-opacity:1;fill-rule:nonzero;stroke:none"
         id="path900"
         inkscape:connector-curvature="0" /><path
         d="m 92.336,47.903 c -0.039,-0.02 -0.078,-0.027 -0.117,-0.039 0.039,0.012 0.078,0.019 0.117,0.039"
         style="fill:#ffffff;fill-opacity:1;fill-rule:nonzero;stroke:none"
         id="path902"
         inkscape:connector-curvature="0" /><path
         d="m 92.48,47.977 c -0.031,-0.019 -0.062,-0.035 -0.093,-0.051 0.031,0.016 0.062,0.032 0.093,0.051"
         style="fill:#ffffff;fill-opacity:1;fill-rule:nonzero;stroke:none"
         id="path904"
         inkscape:connector-curvature="0" /><path
         d="m 92.871,48.575 c 0.004,0.023 0.008,0.051 0.012,0.074 0,0.035 0,0.066 -0.004,0.102 0.004,-0.059 0,-0.118 -0.008,-0.176"
         style="fill:#ffffff;fill-opacity:1;fill-rule:nonzero;stroke:none"
         id="path906"
         inkscape:connector-curvature="0" /><path
         d="m 70.312,77.653 c -0.027,-0.016 -0.054,-0.035 -0.082,-0.055 0.028,0.02 0.055,0.039 0.082,0.055"
         style="fill:#ffffff;fill-opacity:1;fill-rule:nonzero;stroke:none"
         id="path908"
         inkscape:connector-curvature="0" /><path
         d="m 38.871,24.407 c 0.008,0.035 0.016,0.066 0.027,0.098 -0.011,-0.032 -0.019,-0.063 -0.027,-0.098"
         style="fill:#ffffff;fill-opacity:1;fill-rule:nonzero;stroke:none"
         id="path910"
         inkscape:connector-curvature="0" /><path
         d="m 38.852,24.258 c 0,0.036 0.003,0.071 0.011,0.11 -0.008,-0.039 -0.011,-0.074 -0.011,-0.11"
         style="fill:#ffffff;fill-opacity:1;fill-rule:nonzero;stroke:none"
         id="path912"
         inkscape:connector-curvature="0" /><path
         d="m 32.016,33.012 c 0.015,-0.027 0.031,-0.058 0.046,-0.089 0.016,-0.02 0.032,-0.04 0.047,-0.059 -0.035,0.047 -0.066,0.098 -0.093,0.148"
         style="fill:#ffffff;fill-opacity:1;fill-rule:nonzero;stroke:none"
         id="path914"
         inkscape:connector-curvature="0" /><path
         d="m 51.273,16.934 c 0.032,0.016 0.059,0.035 0.086,0.055 -0.027,-0.02 -0.054,-0.039 -0.086,-0.055"
         style="fill:#ffffff;fill-opacity:1;fill-rule:nonzero;stroke:none"
         id="path916"
         inkscape:connector-curvature="0" /><path
         d="m 38.914,24.548 c 0.016,0.042 0.039,0.085 0.063,0.128 -0.024,-0.043 -0.047,-0.086 -0.063,-0.128"
         style="fill:#ffffff;fill-opacity:1;fill-rule:nonzero;stroke:none"
         id="path918"
         inkscape:connector-curvature="0" /><path
         d="m 38.852,24.235 c -0.004,-0.191 0.046,-0.379 0.164,-0.539 0.007,-0.012 0.015,-0.023 0.023,-0.031 0.031,-0.032 0.063,-0.063 0.098,-0.09 -0.192,0.172 -0.289,0.414 -0.285,0.66"
         style="fill:#ffffff;fill-opacity:1;fill-rule:nonzero;stroke:none"
         id="path920"
         inkscape:connector-curvature="0" /><path
         d="m 28.711,46.005 c -0.004,-0.024 -0.008,-0.047 -0.012,-0.071 0,-0.035 0,-0.07 0,-0.101 0,0.058 0.004,0.113 0.012,0.172"
         style="fill:#ffffff;fill-opacity:1;fill-rule:nonzero;stroke:none"
         id="path922"
         inkscape:connector-curvature="0" /><path
         d="m 30.359,56.954 c 0.016,-0.043 0.036,-0.082 0.055,-0.117 -0.019,0.035 -0.039,0.074 -0.055,0.117"
         style="fill:#ffffff;fill-opacity:1;fill-rule:nonzero;stroke:none"
         id="path924"
         inkscape:connector-curvature="0" /><path
         d="m 30.617,56.59 c 0.039,-0.031 0.078,-0.058 0.117,-0.082 -0.043,0.024 -0.078,0.051 -0.117,0.082"
         style="fill:#ffffff;fill-opacity:1;fill-rule:nonzero;stroke:none"
         id="path926"
         inkscape:connector-curvature="0" /><path
         d="m 30.359,56.954 c -0.066,0.183 -0.074,0.386 -0.007,0.586 -0.012,-0.043 -0.028,-0.086 -0.04,-0.125 -0.003,-0.016 -0.003,-0.032 -0.003,-0.043 -0.02,-0.145 0,-0.285 0.05,-0.418"
         style="fill:#ffffff;fill-opacity:1;fill-rule:nonzero;stroke:none"
         id="path928"
         inkscape:connector-curvature="0" /><path
         d="m 30.586,56.622 c -0.024,0.019 -0.047,0.043 -0.066,0.066 0.019,-0.023 0.042,-0.047 0.066,-0.066"
         style="fill:#ffffff;fill-opacity:1;fill-rule:nonzero;stroke:none"
         id="path930"
         inkscape:connector-curvature="0" /><path
         d="m 30.434,56.805 c 0.015,-0.027 0.035,-0.054 0.054,-0.082 -0.019,0.028 -0.039,0.055 -0.054,0.082"
         style="fill:#ffffff;fill-opacity:1;fill-rule:nonzero;stroke:none"
         id="path932"
         inkscape:connector-curvature="0" /><path
         d="m 61.352,15.907 c -0.012,0.055 -0.016,0.113 -0.016,0.168 0,-0.059 0.004,-0.113 0.016,-0.168"
         style="fill:#ffffff;fill-opacity:1;fill-rule:nonzero;stroke:none"
         id="path934"
         inkscape:connector-curvature="0" /><path
         d="m 61.906,15.255 c 0.055,-0.02 0.11,-0.036 0.168,-0.043 0.024,-0.004 0.047,-0.008 0.071,-0.012 l 0.105,0.004 c -0.117,-0.008 -0.234,0.011 -0.344,0.051"
         style="fill:#ffffff;fill-opacity:1;fill-rule:nonzero;stroke:none"
         id="path936"
         inkscape:connector-curvature="0" /><path
         d="m 59.75,79.294 c 0.039,-0.016 0.074,-0.039 0.105,-0.059 -0.031,0.02 -0.066,0.043 -0.105,0.059"
         style="fill:#ffffff;fill-opacity:1;fill-rule:nonzero;stroke:none"
         id="path938"
         inkscape:connector-curvature="0" /><path
         d="m 71.918,17.321 c -0.082,0.031 -0.16,0.07 -0.238,0.109 -0.668,-0.965 -1.137,-2.086 -0.852,-3.144 0.371,-1.391 1.785,-2.238 4.324,-2.598 2.289,-0.32 3.434,-1.539 3.528,-2.535 C 78.734,8.571 78.414,8.13 77.785,7.915 76.695,7.548 75.539,7.38 74.316,7.196 73.328,7.051 72.312,6.903 71.301,6.641 70.297,6.38 69.344,6.02 68.418,5.673 67.254,5.235 66.152,4.821 65.012,4.614 64.355,4.497 63.867,4.723 63.633,5.262 c -0.403,0.918 0.004,2.536 1.851,3.926 2.051,1.543 2.879,2.973 2.528,4.371 -0.633,2.516 -5.102,3.293 -5.657,3.379 0.024,-0.004 0.043,-0.012 0.067,-0.015 0.027,-0.008 0.055,-0.016 0.082,-0.024 0.023,-0.008 0.043,-0.019 0.066,-0.027 0.028,-0.016 0.059,-0.028 0.086,-0.043 0.02,-0.012 0.035,-0.028 0.055,-0.039 0.027,-0.024 0.055,-0.043 0.078,-0.063 0.008,-0.008 0.016,-0.012 0.023,-0.019 0.012,-0.008 0.02,-0.02 0.028,-0.028 0.023,-0.027 0.043,-0.05 0.062,-0.078 0.016,-0.015 0.028,-0.035 0.039,-0.054 0.02,-0.028 0.036,-0.059 0.051,-0.09 0.008,-0.02 0.02,-0.035 0.028,-0.055 0.015,-0.035 0.023,-0.074 0.035,-0.113 0.004,-0.016 0.007,-0.032 0.011,-0.047 0.012,-0.055 0.02,-0.11 0.02,-0.168 0,0.058 -0.008,0.113 -0.02,0.168 -0.004,0.015 -0.007,0.031 -0.011,0.047 -0.012,0.039 -0.02,0.078 -0.035,0.113 -0.008,0.02 -0.02,0.039 -0.028,0.055 -0.015,0.031 -0.031,0.062 -0.051,0.09 -0.011,0.019 -0.023,0.039 -0.039,0.054 -0.019,0.028 -0.039,0.051 -0.062,0.078 -0.016,0.016 -0.031,0.032 -0.051,0.047 -0.023,0.024 -0.051,0.039 -0.078,0.063 -0.016,0.011 -0.035,0.027 -0.055,0.039 -0.027,0.015 -0.058,0.027 -0.086,0.043 -0.023,0.008 -0.043,0.019 -0.066,0.027 -0.027,0.008 -0.055,0.016 -0.082,0.024 -0.027,0.003 -0.051,0.011 -0.078,0.019 0.004,-0.004 0.008,-0.004 0.011,-0.004 -0.062,0.012 -0.125,0.016 -0.187,0.012 -3.758,-0.176 -7.48,0.351 -11.066,1.562 -0.082,0.028 -0.172,0.039 -0.258,0.043 0.035,-0.004 0.066,-0.007 0.086,-0.007 -0.168,0.019 -0.336,-0.008 -0.481,-0.079 -0.008,-0.004 -0.015,-0.007 -0.027,-0.011 -0.024,-0.012 -0.051,-0.028 -0.074,-0.043 -0.016,-0.012 -0.032,-0.024 -0.051,-0.035 -0.016,-0.012 -0.035,-0.028 -0.055,-0.043 -0.019,-0.016 -0.039,-0.039 -0.058,-0.059 -0.012,-0.012 -0.024,-0.023 -0.036,-0.039 -0.031,-0.035 -0.058,-0.074 -0.082,-0.117 0.024,0.043 0.051,0.082 0.082,0.117 0.012,0.016 0.024,0.027 0.036,0.039 0.019,0.02 0.039,0.043 0.058,0.059 0.02,0.015 0.039,0.031 0.055,0.043 0.019,0.011 0.035,0.023 0.051,0.035 0.023,0.015 0.05,0.031 0.074,0.043 0.012,0.004 0.019,0.007 0.027,0.011 0.121,0.059 0.258,0.09 0.395,0.086 -0.793,0.09 -5.039,0.473 -6.293,-1.699 -0.723,-1.246 -0.324,-2.848 1.222,-4.894 1.391,-1.844 1.336,-3.516 0.7,-4.289 -0.375,-0.45 -0.911,-0.536 -1.508,-0.239 -1.031,0.508 -1.969,1.207 -2.961,1.946 -0.801,0.593 -1.625,1.207 -2.527,1.734 -0.891,0.527 -1.821,0.945 -2.719,1.355 -1.137,0.516 -2.207,1 -3.16,1.661 -0.547,0.378 -0.731,0.886 -0.52,1.433 0.367,0.934 1.801,1.789 4.09,1.465 2.539,-0.355 4.137,0.07 4.875,1.305 1.297,2.164 -1.137,5.73 -1.578,6.343 0.074,-0.121 0.117,-0.257 0.129,-0.398 0,-0.016 0,-0.031 0,-0.043 0,-0.027 0,-0.055 -0.004,-0.082 0,-0.023 -0.004,-0.043 -0.004,-0.066 -0.004,-0.024 -0.008,-0.043 -0.012,-0.067 -0.008,-0.027 -0.015,-0.055 -0.027,-0.082 -0.004,-0.015 -0.008,-0.035 -0.016,-0.051 -0.015,-0.043 -0.039,-0.086 -0.062,-0.129 0.023,0.043 0.047,0.086 0.062,0.129 0.008,0.016 0.012,0.036 0.016,0.051 0.012,0.027 0.019,0.055 0.027,0.082 0.004,0.024 0.008,0.043 0.012,0.067 0,0.023 0.004,0.043 0.004,0.066 0.004,0.027 0.004,0.055 0.004,0.082 0,0.012 0,0.027 0,0.043 -0.012,0.16 -0.067,0.316 -0.168,0.453 0.012,-0.016 0.023,-0.031 0.039,-0.055 -0.039,0.071 -0.09,0.133 -0.153,0.192 -2.796,2.547 -5.058,5.547 -6.73,8.922 -0.023,0.05 -0.055,0.101 -0.09,0.148 -0.32,0.41 -3.183,3.988 -5.707,3.317 -1.39,-0.372 -2.242,-1.786 -2.597,-4.325 -0.321,-2.289 -1.54,-3.433 -2.536,-3.527 -0.582,-0.055 -1.023,0.262 -1.238,0.895 -0.367,1.089 -0.535,2.246 -0.719,3.468 -0.144,0.989 -0.293,2.004 -0.554,3.016 -0.262,1 -0.621,1.957 -0.969,2.879 -0.438,1.168 -0.852,2.269 -1.059,3.406 -0.121,0.656 0.11,1.148 0.649,1.383 0.918,0.402 2.539,-0.008 3.926,-1.852 1.542,-2.05 2.972,-2.879 4.371,-2.527 2.531,0.637 3.3,5.156 3.382,5.668 0.008,0.059 0.012,0.113 0.008,0.176 -0.176,3.758 0.352,7.48 1.563,11.062 0.027,0.086 0.039,0.176 0.043,0.258 -0.004,-0.031 -0.008,-0.062 -0.012,-0.082 0.023,0.168 -0.004,0.332 -0.074,0.48 -0.004,0.008 -0.008,0.016 -0.012,0.024 -0.012,0.027 -0.027,0.055 -0.043,0.078 -0.012,0.016 -0.023,0.031 -0.035,0.047 -0.012,0.019 -0.027,0.039 -0.043,0.055 -0.02,0.023 -0.039,0.043 -0.059,0.058 -0.011,0.016 -0.023,0.028 -0.039,0.039 -0.035,0.028 -0.074,0.055 -0.117,0.082 0.043,-0.027 0.082,-0.054 0.117,-0.082 0.016,-0.011 0.028,-0.023 0.039,-0.039 0.02,-0.015 0.039,-0.035 0.059,-0.058 0.016,-0.016 0.031,-0.036 0.043,-0.055 0.012,-0.016 0.023,-0.031 0.035,-0.047 0.016,-0.023 0.031,-0.051 0.043,-0.078 0.004,-0.008 0.008,-0.016 0.012,-0.024 0.058,-0.125 0.09,-0.257 0.086,-0.398 0.09,0.801 0.468,5.043 -1.7,6.297 -1.246,0.723 -2.847,0.32 -4.894,-1.223 -1.848,-1.39 -3.516,-1.336 -4.289,-0.699 -0.449,0.375 -0.535,0.91 -0.238,1.508 0.507,1.031 1.203,1.969 1.945,2.961 0.594,0.797 1.207,1.625 1.734,2.523 0.524,0.895 0.946,1.824 1.356,2.723 0.515,1.137 1,2.207 1.66,3.156 0.379,0.551 0.887,0.734 1.433,0.52 0.934,-0.364 1.79,-1.797 1.465,-4.086 -0.355,-2.543 0.071,-4.137 1.305,-4.875 2.164,-1.297 5.73,1.133 6.344,1.578 -0.117,-0.078 -0.254,-0.117 -0.391,-0.129 -0.015,0 -0.031,-0.004 -0.043,-0.004 -0.027,0 -0.054,0 -0.082,0.004 -0.019,0 -0.043,0.004 -0.066,0.008 -0.02,0 -0.043,0.004 -0.063,0.011 -0.027,0.004 -0.054,0.012 -0.082,0.02 -0.019,0.008 -0.035,0.012 -0.051,0.02 -0.043,0.015 -0.086,0.035 -0.128,0.058 0.042,-0.023 0.085,-0.043 0.128,-0.058 0.016,-0.008 0.032,-0.012 0.051,-0.02 0.028,-0.008 0.055,-0.016 0.082,-0.02 0.02,-0.007 0.043,-0.011 0.063,-0.011 0.023,-0.004 0.047,-0.008 0.066,-0.008 0.028,-0.004 0.055,-0.004 0.082,-0.004 0.012,0 0.028,0.004 0.043,0.004 0.156,0.016 0.313,0.066 0.445,0.164 -0.015,-0.008 -0.031,-0.02 -0.054,-0.035 0.07,0.039 0.133,0.09 0.191,0.148 2.547,2.797 5.551,5.063 8.922,6.731 0.059,0.031 0.109,0.066 0.16,0.105 0.047,0.039 0.09,0.082 0.129,0.125 0,0.004 0.004,0.008 0.004,0.008 0.039,0.047 0.066,0.094 0.094,0.148 0.004,0.008 0.012,0.016 0.015,0.024 0.024,0.051 0.043,0.105 0.055,0.164 0.004,0.008 0.008,0.019 0.008,0.031 0.012,0.059 0.019,0.117 0.019,0.18 0,-0.063 -0.007,-0.121 -0.019,-0.18 0,-0.012 -0.004,-0.023 -0.008,-0.031 -0.012,-0.059 -0.031,-0.113 -0.055,-0.164 -0.003,-0.008 -0.011,-0.016 -0.015,-0.024 -0.028,-0.054 -0.059,-0.101 -0.094,-0.148 0,0 -0.004,-0.004 -0.004,-0.008 -0.039,-0.043 -0.082,-0.086 -0.129,-0.125 -0.004,-0.004 -0.008,-0.008 -0.011,-0.012 0.41,0.321 3.988,3.184 3.316,5.708 -0.371,1.39 -1.785,2.238 -4.324,2.593 -2.289,0.324 -3.434,1.543 -3.528,2.539 -0.054,0.582 0.262,1.024 0.895,1.235 1.09,0.371 2.246,0.539 3.469,0.718 0.984,0.145 2.004,0.297 3.015,0.559 1,0.262 1.957,0.617 2.883,0.969 1.164,0.437 2.266,0.851 3.402,1.058 0.657,0.118 1.149,-0.113 1.383,-0.648 0.403,-0.918 -0.008,-2.539 -1.855,-3.93 -2.047,-1.539 -2.875,-2.968 -2.524,-4.367 0.637,-2.531 5.153,-3.301 5.668,-3.383 -0.019,0.004 -0.039,0.012 -0.058,0.012 -0.02,0.008 -0.039,0.012 -0.059,0.016 -0.039,0.011 -0.078,0.027 -0.117,0.043 -0.016,0.007 -0.027,0.015 -0.043,0.023 -0.023,0.012 -0.047,0.027 -0.07,0.043 -0.016,0.008 -0.028,0.02 -0.043,0.031 -0.02,0.016 -0.043,0.031 -0.063,0.051 -0.012,0.012 -0.023,0.023 -0.035,0.035 -0.02,0.02 -0.039,0.039 -0.055,0.059 -0.011,0.011 -0.023,0.027 -0.031,0.043 -0.016,0.019 -0.031,0.047 -0.047,0.07 -0.008,0.012 -0.015,0.027 -0.023,0.039 -0.02,0.039 -0.039,0.082 -0.051,0.125 0.012,-0.043 0.031,-0.086 0.051,-0.125 0.008,-0.012 0.015,-0.027 0.023,-0.039 0.016,-0.023 0.031,-0.051 0.047,-0.07 0.008,-0.016 0.02,-0.032 0.031,-0.043 0.016,-0.02 0.035,-0.039 0.055,-0.059 0.012,-0.012 0.023,-0.023 0.035,-0.035 0.02,-0.02 0.043,-0.035 0.063,-0.051 0.015,-0.011 0.027,-0.023 0.043,-0.031 0.023,-0.016 0.047,-0.031 0.07,-0.043 0.016,-0.008 0.027,-0.016 0.043,-0.023 0.039,-0.016 0.078,-0.032 0.117,-0.043 0.02,-0.004 0.039,-0.008 0.059,-0.016 0.074,-0.016 0.152,-0.023 0.234,-0.02 3.754,0.176 7.481,-0.351 11.063,-1.562 0.082,-0.027 0.168,-0.039 0.25,-0.043 -0.032,0.004 -0.055,0.008 -0.075,0.008 0.164,-0.02 0.325,0.008 0.469,0.074 0.012,0 0.024,0.008 0.031,0.012 0.024,0.011 0.051,0.027 0.075,0.043 0.015,0.008 0.031,0.019 0.05,0.031 0.016,0.016 0.035,0.027 0.051,0.043 0.024,0.019 0.043,0.039 0.063,0.059 0.011,0.011 0.023,0.023 0.035,0.035 0.027,0.035 0.054,0.074 0.082,0.113 -0.028,-0.039 -0.055,-0.078 -0.082,-0.113 -0.012,-0.012 -0.024,-0.024 -0.035,-0.035 -0.02,-0.02 -0.039,-0.04 -0.063,-0.059 -0.016,-0.016 -0.035,-0.027 -0.051,-0.043 -0.019,-0.012 -0.035,-0.023 -0.05,-0.031 C 71.203,76.149 71.176,76.133 71.152,76.122 71.145,76.118 71.133,76.11 71.121,76.11 71,76.051 70.863,76.024 70.727,76.028 c 0.769,-0.09 5.043,-0.48 6.304,1.699 0.723,1.246 0.324,2.844 -1.222,4.895 -1.391,1.843 -1.34,3.515 -0.7,4.285 0.375,0.453 0.911,0.539 1.508,0.242 1.028,-0.508 1.969,-1.207 2.961,-1.945 0.797,-0.594 1.625,-1.207 2.524,-1.739 0.894,-0.523 1.824,-0.945 2.722,-1.351 1.133,-0.516 2.207,-1.004 3.156,-1.66 0.551,-0.379 0.735,-0.891 0.52,-1.438 -0.363,-0.929 -1.801,-1.789 -4.086,-1.465 -2.543,0.36 -4.137,-0.066 -4.875,-1.304 -1.301,-2.168 1.145,-5.739 1.578,-6.344 -0.055,0.09 -0.097,0.187 -0.117,0.293 0,0 0,0.004 0,0.004 -0.004,0.031 -0.008,0.066 -0.012,0.098 0,0.015 0,0.031 -0.004,0.046 0,0.028 0,0.051 0.004,0.079 0,0.023 0.004,0.042 0.008,0.066 0.004,0.019 0.004,0.043 0.008,0.062 0.008,0.028 0.016,0.059 0.027,0.086 0.004,0.016 0.008,0.032 0.012,0.047 0.019,0.043 0.039,0.086 0.062,0.129 C 81.082,70.77 81.062,70.727 81.043,70.684 81.039,70.669 81.035,70.653 81.031,70.637 81.02,70.61 81.012,70.579 81.004,70.551 81,70.532 81,70.508 80.996,70.489 c -0.004,-0.024 -0.008,-0.047 -0.008,-0.066 0,-0.028 -0.004,-0.051 -0.004,-0.079 0.004,-0.015 0.004,-0.031 0.004,-0.046 0.004,-0.032 0.008,-0.067 0.012,-0.098 0,0 0,-0.004 0,-0.004 0.027,-0.121 0.078,-0.242 0.152,-0.344 -0.007,0.012 -0.019,0.028 -0.035,0.051 0.043,-0.07 0.09,-0.133 0.149,-0.188 2.796,-2.55 5.062,-5.55 6.73,-8.921 0.031,-0.059 0.066,-0.114 0.106,-0.161 0.039,-0.046 0.082,-0.093 0.125,-0.128 0.003,-0.004 0.007,-0.004 0.007,-0.008 0.047,-0.035 0.094,-0.067 0.145,-0.094 0.012,0 0.019,-0.008 0.027,-0.012 0.051,-0.023 0.106,-0.043 0.164,-0.058 0.008,-0.004 0.02,-0.004 0.032,-0.004 0.058,-0.016 0.117,-0.024 0.179,-0.024 -0.062,0 -0.121,0.008 -0.179,0.024 -0.012,0 -0.024,0 -0.032,0.004 -0.058,0.015 -0.113,0.035 -0.164,0.058 -0.008,0.004 -0.015,0.012 -0.027,0.012 -0.051,0.027 -0.098,0.059 -0.145,0.094 0,0.004 -0.004,0.004 -0.007,0.008 -0.043,0.035 -0.086,0.082 -0.125,0.128 -0.004,0.004 -0.008,0.008 -0.012,0.012 0.316,-0.41 3.183,-3.992 5.707,-3.316 1.391,0.367 2.238,1.785 2.594,4.324 0.32,2.289 1.543,3.434 2.539,3.527 0.582,0.055 1.023,-0.265 1.234,-0.894 0.371,-1.09 0.539,-2.246 0.719,-3.469 0.144,-0.988 0.297,-2.004 0.558,-3.016 0.262,-1.003 0.621,-1.957 0.965,-2.878 0.442,-1.168 0.856,-2.27 1.063,-3.407 0.117,-0.656 -0.114,-1.148 -0.649,-1.383 -0.918,-0.402 -2.539,0.008 -3.929,1.852 -1.543,2.051 -2.973,2.875 -4.368,2.527 -2.527,-0.632 -3.3,-5.132 -3.382,-5.664 0.004,0.012 0.007,0.02 0.007,0.028 0.008,0.047 0.02,0.089 0.036,0.132 0.007,0.016 0.015,0.032 0.023,0.047 0.016,0.035 0.031,0.071 0.051,0.102 0.008,0.019 0.019,0.035 0.031,0.051 0.02,0.027 0.043,0.058 0.066,0.082 0.008,0.008 0.012,0.019 0.016,0.023 0.012,0.008 0.02,0.016 0.031,0.024 0.024,0.023 0.051,0.046 0.078,0.066 0.016,0.016 0.032,0.027 0.051,0.039 0.031,0.02 0.063,0.035 0.094,0.051 0.016,0.012 0.035,0.019 0.055,0.027 0.035,0.016 0.074,0.028 0.109,0.035 0.016,0.004 0.031,0.012 0.047,0.012 0.055,0.012 0.113,0.02 0.172,0.02 -0.059,0 -0.117,-0.008 -0.172,-0.02 -0.016,0 -0.031,-0.008 -0.047,-0.012 C 91.754,49.548 91.715,49.536 91.68,49.52 91.66,49.512 91.641,49.505 91.625,49.493 91.594,49.477 91.562,49.462 91.531,49.442 91.512,49.43 91.496,49.419 91.48,49.403 91.453,49.383 91.426,49.36 91.402,49.337 91.387,49.321 91.371,49.309 91.355,49.29 91.332,49.266 91.309,49.235 91.289,49.208 91.277,49.192 91.266,49.176 91.258,49.157 91.238,49.126 91.223,49.09 91.207,49.055 91.199,49.04 91.191,49.024 91.184,49.008 c -0.016,-0.043 -0.028,-0.085 -0.036,-0.132 0,-0.008 -0.003,-0.02 -0.007,-0.032 -0.008,-0.058 -0.012,-0.117 -0.008,-0.175 0.168,-3.61 -0.313,-7.184 -1.422,-10.637 0.543,-0.109 1.055,-0.274 1.535,-0.484 -0.019,0.062 -0.039,0.128 -0.074,0.187 -0.004,0.008 -0.008,0.016 -0.012,0.023 -0.015,0.032 -0.035,0.059 -0.058,0.086 -0.008,0.012 -0.016,0.024 -0.024,0.036 -0.019,0.023 -0.043,0.046 -0.066,0.07 -0.012,0.008 -0.02,0.019 -0.032,0.027 -0.035,0.031 -0.07,0.059 -0.109,0.086 0.039,-0.027 0.074,-0.055 0.109,-0.086 0.012,-0.008 0.02,-0.019 0.032,-0.027 0.023,-0.024 0.047,-0.047 0.066,-0.07 0.008,-0.012 0.016,-0.024 0.024,-0.036 0.023,-0.027 0.043,-0.054 0.058,-0.086 0.004,-0.007 0.008,-0.015 0.012,-0.023 0.035,-0.062 0.058,-0.125 0.078,-0.191 0.043,-0.02 0.082,-0.039 0.121,-0.059 1.168,3.625 1.676,7.375 1.512,11.164 -0.004,-0.023 -0.008,-0.051 -0.012,-0.074 v -0.004 c -0.012,-0.055 -0.023,-0.109 -0.043,-0.16 -0.004,-0.012 -0.012,-0.028 -0.019,-0.039 -0.016,-0.039 -0.032,-0.074 -0.055,-0.114 -0.008,-0.011 -0.02,-0.027 -0.031,-0.043 -0.02,-0.031 -0.043,-0.062 -0.067,-0.085 -0.008,-0.008 -0.011,-0.016 -0.015,-0.024 -0.012,-0.008 -0.02,-0.016 -0.028,-0.023 -0.027,-0.024 -0.054,-0.047 -0.082,-0.067 -0.015,-0.015 -0.031,-0.027 -0.051,-0.039 -0.031,-0.019 -0.062,-0.035 -0.093,-0.051 -0.02,-0.007 -0.035,-0.019 -0.051,-0.023 -0.039,-0.02 -0.078,-0.027 -0.117,-0.039 -0.016,-0.004 -0.028,-0.008 -0.043,-0.012 -0.055,-0.012 -0.114,-0.015 -0.172,-0.015 0.058,0 0.117,0.003 0.172,0.015 0.015,0.004 0.027,0.008 0.043,0.012 0.039,0.012 0.078,0.019 0.117,0.039 0.016,0.004 0.031,0.016 0.051,0.023 0.031,0.016 0.062,0.032 0.093,0.051 0.02,0.012 0.036,0.024 0.051,0.039 0.028,0.02 0.055,0.043 0.082,0.067 0.012,0.015 0.028,0.027 0.043,0.047 0.024,0.023 0.047,0.054 0.067,0.085 0.011,0.016 0.023,0.032 0.031,0.043 0.023,0.04 0.039,0.075 0.055,0.114 0.007,0.011 0.015,0.027 0.019,0.039 0.02,0.054 0.031,0.105 0.043,0.16 v 0.004 c 0.008,0.058 0.012,0.117 0.008,0.176 0.004,-0.036 0.004,-0.067 0.004,-0.102 0.258,1.563 1.078,3.918 2.066,4.164 0.606,0.152 1.531,-0.535 2.543,-1.879 1.973,-2.621 4.449,-3.097 6.028,-2.406 1.277,0.559 1.933,1.855 1.668,3.301 -0.235,1.293 -0.696,2.519 -1.141,3.707 -0.332,0.883 -0.676,1.793 -0.914,2.707 -0.238,0.918 -0.379,1.887 -0.52,2.828 -0.179,1.246 -0.371,2.535 -0.789,3.773 -0.472,1.391 -1.672,2.207 -3.058,2.079 -1.715,-0.165 -3.653,-1.778 -4.106,-5.028 -0.234,-1.668 -0.715,-2.715 -1.316,-2.879 -0.989,-0.261 -2.844,1.403 -3.824,2.645 0.015,-0.031 0.031,-0.063 0.046,-0.09 -0.031,0.059 -0.066,0.113 -0.109,0.16 -0.035,0.047 -0.078,0.09 -0.121,0.129 -0.004,0 -0.008,0.004 -0.012,0.008 -0.043,0.035 -0.094,0.062 -0.14,0.086 -0.008,0.008 -0.02,0.011 -0.028,0.015 -0.051,0.028 -0.105,0.047 -0.16,0.059 -0.012,0.004 -0.023,0.004 -0.035,0.008 -0.059,0.012 -0.117,0.019 -0.18,0.019 0.063,0 0.121,-0.007 0.18,-0.019 0.012,-0.004 0.023,-0.004 0.035,-0.008 0.055,-0.012 0.109,-0.031 0.16,-0.059 0.008,-0.004 0.02,-0.007 0.028,-0.015 0.05,-0.024 0.097,-0.051 0.14,-0.086 0.004,-0.004 0.008,-0.008 0.012,-0.008 0.043,-0.039 0.086,-0.082 0.121,-0.129 0.004,-0.004 0.012,-0.008 0.016,-0.016 0.015,-0.019 0.031,-0.035 0.047,-0.054 -1.743,3.492 -4.09,6.605 -6.981,9.262 0.008,-0.012 0.02,-0.028 0.027,-0.04 0.114,-0.156 0.168,-0.343 0.164,-0.527 0,-0.008 0,-0.016 0,-0.023 0,-0.035 -0.003,-0.075 -0.011,-0.11 -0.004,-0.011 -0.004,-0.027 -0.008,-0.039 -0.004,-0.035 -0.016,-0.066 -0.027,-0.097 -0.004,-0.016 -0.008,-0.028 -0.012,-0.039 -0.016,-0.047 -0.039,-0.09 -0.063,-0.133 0.024,0.043 0.047,0.086 0.063,0.133 0.004,0.011 0.008,0.023 0.012,0.039 0.011,0.031 0.023,0.066 0.027,0.097 0.004,0.012 0.004,0.028 0.008,0.039 0.008,0.035 0.011,0.075 0.011,0.11 0,0.007 0,0.015 0,0.023 0,0.242 -0.097,0.481 -0.285,0.652 0.032,-0.031 0.063,-0.058 0.094,-0.085 -0.926,1.281 -2.027,3.546 -1.5,4.429 0.32,0.531 1.461,0.703 3.129,0.469 3.246,-0.461 5.336,0.957 5.961,2.559 0.508,1.3 0.055,2.679 -1.152,3.511 -1.079,0.75 -2.274,1.293 -3.43,1.817 -0.856,0.39 -1.742,0.789 -2.559,1.269 -0.816,0.481 -1.605,1.063 -2.367,1.633 -1.012,0.75 -2.059,1.527 -3.226,2.105 -1.321,0.653 -2.743,0.383 -3.633,-0.691 -1.102,-1.328 -1.324,-3.84 0.648,-6.457 1.016,-1.344 1.418,-2.426 1.106,-2.965 -0.516,-0.89 -3.032,-1.023 -4.598,-0.836 0.039,-0.011 0.078,-0.023 0.121,-0.039 -0.238,0.082 -0.492,0.055 -0.699,-0.054 -0.008,-0.008 -0.016,-0.012 -0.028,-0.02 -0.027,-0.016 -0.054,-0.035 -0.082,-0.055 -0.011,-0.008 -0.023,-0.019 -0.035,-0.027 -0.023,-0.023 -0.047,-0.043 -0.07,-0.066 -0.008,-0.012 -0.02,-0.02 -0.031,-0.032 -0.028,-0.039 -0.055,-0.074 -0.082,-0.113 0.023,0.039 0.054,0.074 0.082,0.113 0.011,0.012 0.023,0.02 0.031,0.032 0.023,0.023 0.047,0.043 0.07,0.066 0.012,0.008 0.024,0.019 0.035,0.027 0.028,0.02 0.055,0.039 0.082,0.055 0.012,0.008 0.02,0.012 0.028,0.02 0.16,0.085 0.344,0.125 0.531,0.101 0.016,-0.004 0.031,-0.004 0.047,-0.008 -3.723,1.242 -7.586,1.785 -11.484,1.617 0.023,-0.003 0.05,-0.007 0.07,-0.011 0.086,-0.012 0.164,-0.039 0.242,-0.074 0,0 0.004,-0.004 0.004,-0.004 0.039,-0.016 0.074,-0.039 0.105,-0.059 0.012,-0.008 0.024,-0.016 0.032,-0.023 0.023,-0.02 0.051,-0.039 0.07,-0.059 0.012,-0.012 0.023,-0.02 0.035,-0.031 0.02,-0.02 0.039,-0.043 0.055,-0.063 0.012,-0.015 0.023,-0.027 0.031,-0.039 0.02,-0.023 0.035,-0.051 0.047,-0.074 0.008,-0.016 0.016,-0.027 0.023,-0.039 0.02,-0.039 0.04,-0.082 0.055,-0.125 -0.015,0.043 -0.035,0.086 -0.055,0.125 -0.007,0.012 -0.015,0.023 -0.023,0.039 -0.012,0.023 -0.027,0.051 -0.047,0.074 -0.008,0.012 -0.019,0.024 -0.031,0.039 -0.016,0.02 -0.035,0.043 -0.055,0.063 -0.012,0.011 -0.023,0.019 -0.035,0.031 -0.019,0.02 -0.047,0.039 -0.07,0.059 -0.008,0.007 -0.02,0.015 -0.032,0.023 -0.031,0.02 -0.066,0.043 -0.105,0.059 0,0 -0.004,0.004 -0.004,0.004 -0.129,0.058 -0.269,0.089 -0.414,0.082 0.035,0.003 0.066,0.003 0.102,0.003 -1.559,0.258 -3.918,1.079 -4.168,2.067 -0.149,0.605 0.535,1.531 1.882,2.547 2.622,1.968 3.094,4.445 2.407,6.023 -0.559,1.278 -1.856,1.934 -3.301,1.672 -1.293,-0.238 -2.52,-0.699 -3.707,-1.144 -0.883,-0.333 -1.793,-0.676 -2.707,-0.915 -0.918,-0.238 -1.891,-0.378 -2.828,-0.519 -1.246,-0.18 -2.539,-0.371 -3.774,-0.789 -1.394,-0.473 -2.207,-1.672 -2.078,-3.059 0.16,-1.718 1.778,-3.652 5.024,-4.105 1.668,-0.235 2.718,-0.715 2.878,-1.313 0.266,-0.988 -1.402,-2.847 -2.64,-3.828 0.027,0.016 0.058,0.031 0.09,0.047 l -0.016,-0.008 c 0.031,0.012 0.063,0.031 0.098,0.043 C 46.559,76.09 46.527,76.071 46.496,76.055 46.477,76.048 46.457,76.032 46.438,76.02 46.426,76.016 46.414,76.008 46.406,76.001 46.398,75.997 46.395,75.993 46.387,75.989 46.367,75.977 46.352,75.962 46.332,75.946 46.316,75.934 46.305,75.923 46.289,75.907 46.273,75.891 46.258,75.876 46.246,75.86 46.23,75.844 46.219,75.829 46.207,75.809 46.191,75.794 46.18,75.778 46.168,75.758 46.156,75.743 46.145,75.723 46.137,75.704 46.125,75.684 46.117,75.669 46.109,75.653 46.098,75.63 46.09,75.61 46.082,75.587 c -0.008,-0.016 -0.012,-0.036 -0.02,-0.051 -0.007,-0.028 -0.011,-0.055 -0.019,-0.082 0,-0.012 -0.004,-0.028 -0.008,-0.043 -0.008,-0.043 -0.012,-0.086 -0.012,-0.129 0,0.043 0.004,0.086 0.012,0.129 0.004,0.015 0.008,0.031 0.008,0.043 0.008,0.027 0.012,0.054 0.019,0.082 0.008,0.015 0.012,0.035 0.02,0.051 0.008,0.023 0.016,0.043 0.027,0.066 0.008,0.016 0.016,0.031 0.028,0.051 0.008,0.019 0.019,0.039 0.031,0.054 0.012,0.02 0.023,0.036 0.039,0.051 0.012,0.02 0.023,0.035 0.039,0.051 0.012,0.016 0.027,0.031 0.043,0.047 0.016,0.016 0.027,0.027 0.043,0.039 0.02,0.016 0.035,0.031 0.055,0.043 -0.008,-0.004 -0.016,-0.012 -0.024,-0.016 0.02,0.016 0.039,0.032 0.059,0.047 -3.492,-1.742 -6.61,-4.09 -9.262,-6.98 0.012,0.008 0.028,0.019 0.039,0.027 0.153,0.113 0.34,0.168 0.524,0.164 0.007,0 0.015,0 0.023,0 0.039,-0.004 0.074,-0.004 0.109,-0.012 l 0.043,-0.004 c 0.032,-0.011 0.063,-0.019 0.094,-0.031 0.016,0 0.028,-0.004 0.043,-0.011 0.043,-0.016 0.086,-0.036 0.129,-0.063 -0.043,0.027 -0.086,0.047 -0.129,0.063 -0.015,0.007 -0.027,0.011 -0.043,0.011 -0.031,0.012 -0.062,0.024 -0.094,0.031 l -0.043,0.004 c -0.035,0.008 -0.07,0.008 -0.109,0.012 -0.008,0 -0.016,0 -0.023,0 -0.239,0.004 -0.477,-0.098 -0.649,-0.285 0.028,0.031 0.059,0.062 0.086,0.094 -1.281,-0.922 -3.547,-2.028 -4.43,-1.5 -0.535,0.32 -0.703,1.461 -0.468,3.129 0.457,3.246 -0.957,5.336 -2.563,5.964 -1.297,0.504 -2.676,0.051 -3.511,-1.156 -0.747,-1.078 -1.29,-2.273 -1.813,-3.429 -0.391,-0.856 -0.793,-1.743 -1.27,-2.559 -0.48,-0.816 -1.066,-1.606 -1.632,-2.367 -0.754,-1.012 -1.532,-2.059 -2.11,-3.231 -0.652,-1.312 -0.379,-2.738 0.696,-3.629 1.324,-1.097 3.836,-1.324 6.457,0.653 1.343,1.011 2.422,1.414 2.961,1.101 0.89,-0.511 1.023,-3.031 0.835,-4.601 0.012,0.039 0.028,0.082 0.04,0.125 -0.067,-0.2 -0.059,-0.403 0.007,-0.586 0.016,-0.043 0.036,-0.082 0.055,-0.117 0.008,-0.012 0.012,-0.02 0.02,-0.032 0.015,-0.027 0.035,-0.054 0.054,-0.082 0.012,-0.011 0.02,-0.023 0.032,-0.035 0.019,-0.023 0.042,-0.047 0.066,-0.066 0.012,-0.012 0.019,-0.024 0.031,-0.032 0.039,-0.031 0.074,-0.058 0.117,-0.082 -0.039,0.024 -0.078,0.051 -0.117,0.082 -0.012,0.008 -0.019,0.02 -0.031,0.032 -0.024,0.019 -0.047,0.043 -0.066,0.066 -0.012,0.012 -0.024,0.024 -0.032,0.035 -0.019,0.028 -0.039,0.055 -0.054,0.082 -0.008,0.012 -0.012,0.02 -0.02,0.032 -0.019,0.035 -0.039,0.074 -0.055,0.117 -0.05,0.133 -0.07,0.273 -0.05,0.418 0,0.011 0,0.027 0.003,0.043 -1.242,-3.723 -1.785,-7.586 -1.613,-11.481 0.004,0.024 0.008,0.047 0.012,0.071 -0.008,-0.059 -0.012,-0.114 -0.012,-0.172 0,0.031 0,0.066 0,0.101 -0.258,-1.562 -1.078,-3.918 -2.066,-4.168 -0.606,-0.148 -1.531,0.535 -2.547,1.883 -1.973,2.621 -4.449,3.098 -6.027,2.406 -1.274,-0.558 -1.93,-1.855 -1.668,-3.3 0.238,-1.293 0.699,-2.52 1.144,-3.707 0.332,-0.883 0.672,-1.793 0.91,-2.708 0.239,-0.917 0.383,-1.886 0.52,-2.828 0.183,-1.246 0.375,-2.535 0.793,-3.773 0.469,-1.391 1.672,-2.207 3.058,-2.078 1.715,0.16 3.649,1.777 4.106,5.023 0.234,1.668 0.711,2.719 1.312,2.879 0.989,0.266 2.844,-1.398 3.828,-2.64 -0.015,0.031 -0.031,0.062 -0.046,0.089 0.027,-0.05 0.058,-0.101 0.093,-0.148 -0.015,0.019 -0.031,0.039 -0.047,0.059 1.743,-3.493 4.09,-6.606 6.977,-9.258 -0.008,0.008 -0.016,0.019 -0.023,0.031 -0.118,0.16 -0.168,0.348 -0.164,0.539 0,0.008 0,0.012 0,0.023 0,0.036 0.003,0.071 0.011,0.11 0.004,0.012 0.004,0.027 0.008,0.039 0.008,0.035 0.016,0.066 0.027,0.098 0.004,0.011 0.008,0.027 0.016,0.043 0.016,0.042 0.039,0.085 0.063,0.128 -0.024,-0.043 -0.047,-0.086 -0.063,-0.128 -0.008,-0.016 -0.012,-0.032 -0.016,-0.043 -0.011,-0.032 -0.019,-0.063 -0.027,-0.098 -0.004,-0.012 -0.004,-0.027 -0.008,-0.039 -0.008,-0.039 -0.011,-0.074 -0.011,-0.11 0,-0.011 0,-0.015 0,-0.023 -0.004,-0.246 0.093,-0.488 0.285,-0.66 -0.035,0.027 -0.067,0.058 -0.098,0.09 0.926,-1.285 2.031,-3.555 1.504,-4.434 -0.32,-0.535 -1.461,-0.703 -3.129,-0.469 -3.25,0.457 -5.336,-0.957 -5.965,-2.558 -0.508,-1.301 -0.054,-2.68 1.153,-3.516 1.082,-0.746 2.277,-1.289 3.433,-1.812 0.856,-0.391 1.742,-0.793 2.555,-1.27 0.82,-0.48 1.609,-1.066 2.367,-1.633 1.012,-0.75 2.059,-1.531 3.231,-2.109 1.316,-0.652 2.742,-0.379 3.632,0.695 1.098,1.324 1.325,3.836 -0.652,6.457 -1.016,1.344 -1.418,2.426 -1.106,2.961 0.52,0.895 3.036,1.028 4.606,0.836 -0.043,0.016 -0.086,0.027 -0.125,0.039 0.242,-0.078 0.496,-0.051 0.703,0.063 0.012,0.008 0.02,0.011 0.027,0.019 0.032,0.016 0.059,0.035 0.086,0.055 0.012,0.012 0.024,0.019 0.036,0.027 0.023,0.024 0.046,0.047 0.066,0.071 0.012,0.011 0.023,0.023 0.031,0.035 0.031,0.035 0.059,0.074 0.082,0.113 -0.023,-0.039 -0.051,-0.078 -0.082,-0.113 -0.008,-0.012 -0.019,-0.024 -0.031,-0.035 -0.02,-0.024 -0.043,-0.047 -0.066,-0.071 -0.012,-0.008 -0.024,-0.015 -0.036,-0.027 -0.027,-0.02 -0.054,-0.039 -0.086,-0.055 -0.007,-0.008 -0.015,-0.011 -0.027,-0.019 -0.16,-0.09 -0.348,-0.129 -0.535,-0.106 -0.016,0 -0.031,0 -0.043,0.004 3.719,-1.242 7.578,-1.785 11.477,-1.613 -0.024,0.004 -0.047,0.008 -0.071,0.012 -0.058,0.007 -0.113,0.023 -0.168,0.043 -0.008,0.003 -0.011,0.007 -0.019,0.011 -0.043,0.016 -0.09,0.039 -0.129,0.063 -0.012,0.008 -0.024,0.015 -0.039,0.023 -0.031,0.024 -0.063,0.051 -0.094,0.078 -0.008,0.004 -0.016,0.008 -0.02,0.012 -0.007,0.008 -0.011,0.02 -0.019,0.023 -0.027,0.028 -0.051,0.059 -0.074,0.086 -0.012,0.016 -0.024,0.032 -0.035,0.051 -0.02,0.028 -0.036,0.063 -0.051,0.094 -0.008,0.019 -0.02,0.035 -0.028,0.051 -0.011,0.039 -0.023,0.074 -0.035,0.113 -0.004,0.02 -0.008,0.031 -0.011,0.047 -0.012,0.055 -0.016,0.109 -0.016,0.168 0,-0.055 0.004,-0.113 0.016,-0.168 0.003,-0.016 0.007,-0.027 0.011,-0.047 0.012,-0.039 0.024,-0.074 0.035,-0.113 0.008,-0.016 0.02,-0.032 0.028,-0.051 0.015,-0.031 0.031,-0.063 0.051,-0.094 0.011,-0.019 0.023,-0.035 0.035,-0.051 0.023,-0.027 0.047,-0.054 0.074,-0.086 0.012,-0.011 0.023,-0.023 0.039,-0.035 0.031,-0.027 0.063,-0.054 0.094,-0.078 0.015,-0.008 0.027,-0.015 0.039,-0.023 0.039,-0.024 0.086,-0.047 0.129,-0.063 0.008,-0.004 0.011,-0.008 0.019,-0.011 0.11,-0.04 0.227,-0.059 0.344,-0.051 L 62.145,15.2 c 1.562,-0.258 3.921,-1.078 4.167,-2.067 0.153,-0.605 -0.535,-1.531 -1.878,-2.546 -2.622,-1.973 -3.098,-4.45 -2.407,-6.028 0.559,-1.273 1.856,-1.929 3.301,-1.668 1.289,0.239 2.52,0.699 3.707,1.145 0.879,0.332 1.793,0.672 2.707,0.91 0.918,0.238 1.887,0.383 2.828,0.519 1.246,0.184 2.535,0.375 3.774,0.793 1.394,0.469 2.207,1.672 2.078,3.059 -0.16,1.715 -1.777,3.648 -5.027,4.106 -1.668,0.234 -2.715,0.71 -2.875,1.312 -0.153,0.566 0.324,1.41 0.992,2.215 -0.094,0.008 -0.188,0.015 -0.274,0.027 -0.484,0.063 -0.914,0.172 -1.32,0.344"
         style="fill:#ffffff;fill-opacity:1;fill-rule:nonzero;stroke:none"
         id="path940"
         inkscape:connector-curvature="0" /><path
         d="m 61.398,15.747 c -0.011,0.039 -0.023,0.074 -0.035,0.113 0.012,-0.039 0.024,-0.074 0.035,-0.113"
         style="fill:#ffffff;fill-opacity:1;fill-rule:nonzero;stroke:none"
         id="path942"
         inkscape:connector-curvature="0" /><path
         d="m 61.887,15.266 c -0.043,0.016 -0.09,0.039 -0.129,0.063 0.039,-0.024 0.086,-0.047 0.129,-0.063"
         style="fill:#ffffff;fill-opacity:1;fill-rule:nonzero;stroke:none"
         id="path944"
         inkscape:connector-curvature="0" /><path
         d="m 51.246,16.915 c -0.207,-0.114 -0.461,-0.141 -0.703,-0.063 0.039,-0.012 0.082,-0.023 0.125,-0.039 0.012,-0.004 0.027,-0.004 0.043,-0.004 0.187,-0.023 0.375,0.016 0.535,0.106"
         style="fill:#ffffff;fill-opacity:1;fill-rule:nonzero;stroke:none"
         id="path946"
         inkscape:connector-curvature="0" /><path
         d="m 51.461,17.087 c -0.02,-0.024 -0.043,-0.047 -0.066,-0.071 0.023,0.024 0.046,0.047 0.066,0.071"
         style="fill:#ffffff;fill-opacity:1;fill-rule:nonzero;stroke:none"
         id="path948"
         inkscape:connector-curvature="0" /><path
         d="m 61.477,15.602 c -0.02,0.031 -0.036,0.063 -0.051,0.094 0.015,-0.031 0.031,-0.066 0.051,-0.094"
         style="fill:#ffffff;fill-opacity:1;fill-rule:nonzero;stroke:none"
         id="path950"
         inkscape:connector-curvature="0" /><path
         d="m 61.719,15.352 c -0.031,0.024 -0.063,0.051 -0.094,0.078 0.031,-0.027 0.063,-0.054 0.094,-0.078"
         style="fill:#ffffff;fill-opacity:1;fill-rule:nonzero;stroke:none"
         id="path952"
         inkscape:connector-curvature="0" /><path
         d="m 51.492,17.122 c 0.031,0.035 0.059,0.074 0.082,0.113 -0.023,-0.039 -0.051,-0.078 -0.082,-0.113"
         style="fill:#ffffff;fill-opacity:1;fill-rule:nonzero;stroke:none"
         id="path954"
         inkscape:connector-curvature="0" /><path
         d="m 61.586,15.465 c -0.027,0.032 -0.051,0.059 -0.074,0.086 0.023,-0.027 0.047,-0.058 0.074,-0.086"
         style="fill:#ffffff;fill-opacity:1;fill-rule:nonzero;stroke:none"
         id="path956"
         inkscape:connector-curvature="0" /><path
         d="m 37.723,69.231 c -0.184,0.004 -0.371,-0.051 -0.524,-0.164 -0.011,-0.008 -0.027,-0.019 -0.039,-0.027 -0.027,-0.032 -0.058,-0.063 -0.086,-0.094 0.172,0.187 0.41,0.289 0.649,0.285"
         style="fill:#ffffff;fill-opacity:1;fill-rule:nonzero;stroke:none"
         id="path958"
         inkscape:connector-curvature="0" /><path
         d="m 46.387,75.989 c -0.02,-0.012 -0.035,-0.027 -0.055,-0.043 0.02,0.016 0.035,0.031 0.055,0.043"
         style="fill:#ffffff;fill-opacity:1;fill-rule:nonzero;stroke:none"
         id="path960"
         inkscape:connector-curvature="0" /><path
         d="m 46.207,75.809 c -0.016,-0.015 -0.027,-0.031 -0.039,-0.051 0.012,0.02 0.023,0.036 0.039,0.051"
         style="fill:#ffffff;fill-opacity:1;fill-rule:nonzero;stroke:none"
         id="path962"
         inkscape:connector-curvature="0" /><path
         d="m 46.137,75.704 c -0.012,-0.02 -0.02,-0.035 -0.028,-0.051 0.008,0.016 0.016,0.031 0.028,0.051"
         style="fill:#ffffff;fill-opacity:1;fill-rule:nonzero;stroke:none"
         id="path964"
         inkscape:connector-curvature="0" /><path
         d="m 46.082,75.587 c -0.008,-0.016 -0.012,-0.036 -0.02,-0.051 0.008,0.015 0.012,0.035 0.02,0.051"
         style="fill:#ffffff;fill-opacity:1;fill-rule:nonzero;stroke:none"
         id="path966"
         inkscape:connector-curvature="0" /><path
         d="m 59.746,79.298 c -0.078,0.035 -0.156,0.062 -0.242,0.074 -0.02,0.004 -0.047,0.008 -0.07,0.011 -0.036,0 -0.067,0 -0.102,-0.003 0.145,0.007 0.285,-0.024 0.414,-0.082"
         style="fill:#ffffff;fill-opacity:1;fill-rule:nonzero;stroke:none"
         id="path968"
         inkscape:connector-curvature="0" /><path
         d="m 46.043,75.454 c 0,-0.012 -0.004,-0.028 -0.008,-0.043 0.004,0.015 0.008,0.031 0.008,0.043"
         style="fill:#ffffff;fill-opacity:1;fill-rule:nonzero;stroke:none"
         id="path970"
         inkscape:connector-curvature="0" /><path
         d="m 59.992,79.122 c 0.02,-0.02 0.039,-0.043 0.055,-0.063 -0.016,0.02 -0.035,0.043 -0.055,0.063"
         style="fill:#ffffff;fill-opacity:1;fill-rule:nonzero;stroke:none"
         id="path972"
         inkscape:connector-curvature="0" /><path
         d="m 59.887,79.212 c 0.023,-0.02 0.051,-0.039 0.07,-0.059 -0.019,0.02 -0.047,0.039 -0.07,0.059"
         style="fill:#ffffff;fill-opacity:1;fill-rule:nonzero;stroke:none"
         id="path974"
         inkscape:connector-curvature="0" /><path
         d="m 60.078,79.02 c 0.02,-0.023 0.035,-0.051 0.047,-0.074 -0.012,0.023 -0.027,0.051 -0.047,0.074"
         style="fill:#ffffff;fill-opacity:1;fill-rule:nonzero;stroke:none"
         id="path976"
         inkscape:connector-curvature="0" /><path
         d="m 60.148,78.907 c 0.02,-0.039 0.04,-0.082 0.055,-0.125 -0.015,0.043 -0.035,0.086 -0.055,0.125"
         style="fill:#ffffff;fill-opacity:1;fill-rule:nonzero;stroke:none"
         id="path978"
         inkscape:connector-curvature="0" /><path
         d="m 37.746,69.231 c 0.039,-0.004 0.074,-0.004 0.109,-0.012 -0.035,0.008 -0.07,0.008 -0.109,0.012"
         style="fill:#ffffff;fill-opacity:1;fill-rule:nonzero;stroke:none"
         id="path980"
         inkscape:connector-curvature="0" /><path
         d="m 46.387,75.989 c 0.015,0.012 0.031,0.019 0.047,0.031 0.011,0.008 0.023,0.02 0.039,0.028 0.007,0 0.015,0.007 0.023,0.011 l 0.016,0.008 c -0.032,-0.016 -0.063,-0.031 -0.09,-0.047 -0.02,-0.015 -0.039,-0.031 -0.059,-0.047 0.008,0.004 0.016,0.012 0.024,0.016"
         style="fill:#ffffff;fill-opacity:1;fill-rule:nonzero;stroke:none"
         id="path982"
         inkscape:connector-curvature="0" /><path
         d="m 46.496,76.055 c 0,0.004 0,0.004 0,0.004 -0.008,-0.004 -0.016,-0.011 -0.023,-0.011 0.007,0 0.015,0.003 0.023,0.007"
         style="fill:#ffffff;fill-opacity:1;fill-rule:nonzero;stroke:none"
         id="path984"
         inkscape:connector-curvature="0" /><path
         d="m 37.898,69.215 c 0.032,-0.007 0.063,-0.019 0.094,-0.031 -0.031,0.012 -0.062,0.02 -0.094,0.031"
         style="fill:#ffffff;fill-opacity:1;fill-rule:nonzero;stroke:none"
         id="path986"
         inkscape:connector-curvature="0" /><path
         d="m 38.035,69.173 c 0.043,-0.016 0.086,-0.036 0.129,-0.063 -0.043,0.027 -0.086,0.047 -0.129,0.063"
         style="fill:#ffffff;fill-opacity:1;fill-rule:nonzero;stroke:none"
         id="path988"
         inkscape:connector-curvature="0" /><path
         d="m 46.438,76.02 c 0.019,0.012 0.039,0.028 0.058,0.035 -0.008,-0.004 -0.016,-0.007 -0.023,-0.007 -0.012,-0.008 -0.024,-0.02 -0.035,-0.028"
         style="fill:#ffffff;fill-opacity:1;fill-rule:nonzero;stroke:none"
         id="path990"
         inkscape:connector-curvature="0" /><path
         d="m 46.434,76.02 c 0,0 0,0 0.004,0 0.011,0.008 0.023,0.02 0.035,0.028 -0.016,-0.008 -0.028,-0.02 -0.039,-0.028"
         style="fill:#ffffff;fill-opacity:1;fill-rule:nonzero;stroke:none"
         id="path992"
         inkscape:connector-curvature="0" /><path
         d="m 46.406,76.001 c 0.008,0.007 0.02,0.015 0.032,0.019 -0.004,0 -0.004,0 -0.004,0 -0.008,-0.004 -0.02,-0.012 -0.028,-0.019"
         style="fill:#ffffff;fill-opacity:1;fill-rule:nonzero;stroke:none"
         id="path994"
         inkscape:connector-curvature="0" /><path
         d="m 46.387,75.989 c 0.008,0.004 0.011,0.008 0.019,0.012 0.008,0.007 0.02,0.015 0.028,0.019 -0.016,-0.012 -0.032,-0.019 -0.047,-0.031"
         style="fill:#ffffff;fill-opacity:1;fill-rule:nonzero;stroke:none"
         id="path996"
         inkscape:connector-curvature="0" /><path
         d="m 46.246,75.86 c 0.012,0.016 0.027,0.031 0.043,0.047 -0.016,-0.016 -0.031,-0.031 -0.043,-0.047"
         style="fill:#ffffff;fill-opacity:1;fill-rule:nonzero;stroke:none"
         id="path998"
         inkscape:connector-curvature="0" /><path
         d="m 31.738,57.934 c -0.035,0.028 -0.074,0.055 -0.117,0.082 0.043,-0.027 0.082,-0.054 0.117,-0.082"
         style="fill:#ffffff;fill-opacity:1;fill-rule:nonzero;stroke:none"
         id="path1000"
         inkscape:connector-curvature="0" /><path
         d="m 37.785,67.489 c -0.015,0 -0.031,-0.004 -0.043,-0.004 0.012,0 0.028,0.004 0.043,0.004"
         style="fill:#ffffff;fill-opacity:1;fill-rule:nonzero;stroke:none"
         id="path1002"
         inkscape:connector-curvature="0" /><path
         d="m 31.969,57.633 c 0.07,-0.148 0.097,-0.312 0.074,-0.48 0.004,0.02 0.008,0.051 0.012,0.082 0.004,0.141 -0.028,0.273 -0.086,0.398"
         style="fill:#ffffff;fill-opacity:1;fill-rule:nonzero;stroke:none"
         id="path1004"
         inkscape:connector-curvature="0" /><path
         d="m 31.738,57.934 c 0.016,-0.011 0.028,-0.023 0.039,-0.039 -0.011,0.016 -0.023,0.028 -0.039,0.039"
         style="fill:#ffffff;fill-opacity:1;fill-rule:nonzero;stroke:none"
         id="path1006"
         inkscape:connector-curvature="0" /><path
         d="m 31.777,57.895 c 0.02,-0.015 0.039,-0.035 0.059,-0.058 -0.02,0.023 -0.039,0.043 -0.059,0.058"
         style="fill:#ffffff;fill-opacity:1;fill-rule:nonzero;stroke:none"
         id="path1008"
         inkscape:connector-curvature="0" /><path
         d="m 37.742,67.485 c -0.027,0 -0.054,0 -0.082,0.004 0.028,-0.004 0.055,-0.004 0.082,-0.004"
         style="fill:#ffffff;fill-opacity:1;fill-rule:nonzero;stroke:none"
         id="path1010"
         inkscape:connector-curvature="0" /><path
         d="m 31.969,57.633 c -0.004,0.008 -0.008,0.016 -0.012,0.024 0.004,-0.008 0.008,-0.016 0.012,-0.024"
         style="fill:#ffffff;fill-opacity:1;fill-rule:nonzero;stroke:none"
         id="path1012"
         inkscape:connector-curvature="0" /><path
         d="m 31.957,57.657 c -0.012,0.027 -0.027,0.055 -0.043,0.078 0.016,-0.023 0.031,-0.051 0.043,-0.078"
         style="fill:#ffffff;fill-opacity:1;fill-rule:nonzero;stroke:none"
         id="path1014"
         inkscape:connector-curvature="0" /><path
         d="m 31.879,57.782 c -0.012,0.019 -0.027,0.039 -0.043,0.055 0.016,-0.016 0.031,-0.036 0.043,-0.055"
         style="fill:#ffffff;fill-opacity:1;fill-rule:nonzero;stroke:none"
         id="path1016"
         inkscape:connector-curvature="0" /><path
         d="m 40.594,24.278 c -0.012,0.141 -0.055,0.277 -0.129,0.398 -0.016,0.024 -0.027,0.039 -0.039,0.055 0.101,-0.137 0.156,-0.293 0.168,-0.453"
         style="fill:#ffffff;fill-opacity:1;fill-rule:nonzero;stroke:none"
         id="path1018"
         inkscape:connector-curvature="0" /><path
         d="m 31.914,57.735 c -0.012,0.016 -0.023,0.031 -0.035,0.047 0.012,-0.016 0.023,-0.031 0.035,-0.047"
         style="fill:#ffffff;fill-opacity:1;fill-rule:nonzero;stroke:none"
         id="path1020"
         inkscape:connector-curvature="0" /><path
         d="m 37.66,67.489 c -0.019,0 -0.043,0.004 -0.066,0.008 0.023,-0.004 0.047,-0.008 0.066,-0.008"
         style="fill:#ffffff;fill-opacity:1;fill-rule:nonzero;stroke:none"
         id="path1022"
         inkscape:connector-curvature="0" /><path
         d="m 40.531,23.887 c -0.015,-0.043 -0.039,-0.086 -0.062,-0.129 0.023,0.043 0.047,0.086 0.062,0.129"
         style="fill:#ffffff;fill-opacity:1;fill-rule:nonzero;stroke:none"
         id="path1024"
         inkscape:connector-curvature="0" /><path
         d="m 37.594,67.497 c -0.02,0 -0.043,0.004 -0.063,0.011 0.02,-0.007 0.043,-0.011 0.063,-0.011"
         style="fill:#ffffff;fill-opacity:1;fill-rule:nonzero;stroke:none"
         id="path1026"
         inkscape:connector-curvature="0" /><path
         d="m 59.18,77.653 c -0.02,0.008 -0.039,0.012 -0.059,0.016 0.02,-0.004 0.039,-0.008 0.059,-0.016"
         style="fill:#ffffff;fill-opacity:1;fill-rule:nonzero;stroke:none"
         id="path1028"
         inkscape:connector-curvature="0" /><path
         d="m 47.746,75.071 c 0.004,0.008 0.008,0.019 0.008,0.031 0,-0.012 -0.004,-0.023 -0.008,-0.031"
         style="fill:#ffffff;fill-opacity:1;fill-rule:nonzero;stroke:none"
         id="path1030"
         inkscape:connector-curvature="0" /><path
         d="m 40.547,23.938 c -0.004,-0.015 -0.008,-0.035 -0.016,-0.051 0.008,0.016 0.012,0.036 0.016,0.051"
         style="fill:#ffffff;fill-opacity:1;fill-rule:nonzero;stroke:none"
         id="path1032"
         inkscape:connector-curvature="0" /><path
         d="m 47.578,74.727 c -0.039,-0.043 -0.082,-0.086 -0.129,-0.125 0.047,0.039 0.09,0.082 0.129,0.125"
         style="fill:#ffffff;fill-opacity:1;fill-rule:nonzero;stroke:none"
         id="path1034"
         inkscape:connector-curvature="0" /><path
         d="m 47.691,74.907 c 0.024,0.051 0.043,0.105 0.055,0.164 -0.012,-0.059 -0.031,-0.113 -0.055,-0.164"
         style="fill:#ffffff;fill-opacity:1;fill-rule:nonzero;stroke:none"
         id="path1036"
         inkscape:connector-curvature="0" /><path
         d="m 47.582,74.735 c 0,0 -0.004,-0.004 -0.004,-0.008 0,0.004 0.004,0.008 0.004,0.008"
         style="fill:#ffffff;fill-opacity:1;fill-rule:nonzero;stroke:none"
         id="path1038"
         inkscape:connector-curvature="0" /><path
         d="m 47.754,75.102 c 0.012,0.059 0.019,0.117 0.019,0.18 0,-0.063 -0.007,-0.121 -0.019,-0.18"
         style="fill:#ffffff;fill-opacity:1;fill-rule:nonzero;stroke:none"
         id="path1040"
         inkscape:connector-curvature="0" /><path
         d="m 37.398,67.548 c -0.043,0.015 -0.086,0.035 -0.128,0.058 0.042,-0.023 0.085,-0.043 0.128,-0.058"
         style="fill:#ffffff;fill-opacity:1;fill-rule:nonzero;stroke:none"
         id="path1042"
         inkscape:connector-curvature="0" /><path
         d="m 37.449,67.528 c -0.019,0.008 -0.035,0.012 -0.051,0.02 0.016,-0.008 0.032,-0.012 0.051,-0.02"
         style="fill:#ffffff;fill-opacity:1;fill-rule:nonzero;stroke:none"
         id="path1044"
         inkscape:connector-curvature="0" /><path
         d="m 47.676,74.883 c 0.004,0.008 0.012,0.016 0.015,0.024 -0.003,-0.008 -0.011,-0.016 -0.015,-0.024"
         style="fill:#ffffff;fill-opacity:1;fill-rule:nonzero;stroke:none"
         id="path1046"
         inkscape:connector-curvature="0" /><path
         d="m 37.531,67.508 c -0.027,0.004 -0.054,0.012 -0.082,0.02 0.028,-0.008 0.055,-0.016 0.082,-0.02"
         style="fill:#ffffff;fill-opacity:1;fill-rule:nonzero;stroke:none"
         id="path1048"
         inkscape:connector-curvature="0" /><path
         d="m 37.785,67.489 c 0.137,0.012 0.274,0.051 0.391,0.129 0.023,0.015 0.039,0.027 0.054,0.035 -0.132,-0.098 -0.289,-0.148 -0.445,-0.164"
         style="fill:#ffffff;fill-opacity:1;fill-rule:nonzero;stroke:none"
         id="path1050"
         inkscape:connector-curvature="0" /><path
         d="m 47.582,74.735 c 0.035,0.047 0.066,0.094 0.094,0.148 -0.028,-0.054 -0.055,-0.101 -0.094,-0.148"
         style="fill:#ffffff;fill-opacity:1;fill-rule:nonzero;stroke:none"
         id="path1052"
         inkscape:connector-curvature="0" /><path
         d="m 50.449,18.469 c 0.145,0.071 0.313,0.098 0.481,0.079 -0.02,0 -0.051,0.003 -0.086,0.007 -0.137,0.004 -0.274,-0.027 -0.395,-0.086"
         style="fill:#ffffff;fill-opacity:1;fill-rule:nonzero;stroke:none"
         id="path1054"
         inkscape:connector-curvature="0" /><path
         d="m 62.941,16.548 c 0.02,-0.028 0.036,-0.059 0.051,-0.09 -0.015,0.031 -0.031,0.062 -0.051,0.09"
         style="fill:#ffffff;fill-opacity:1;fill-rule:nonzero;stroke:none"
         id="path1056"
         inkscape:connector-curvature="0" /><path
         d="m 62.902,16.602 c 0.016,-0.015 0.028,-0.035 0.039,-0.054 -0.011,0.019 -0.023,0.039 -0.039,0.054"
         style="fill:#ffffff;fill-opacity:1;fill-rule:nonzero;stroke:none"
         id="path1058"
         inkscape:connector-curvature="0" /><path
         d="m 62.504,16.899 c 0.023,-0.008 0.043,-0.019 0.066,-0.027 -0.023,0.008 -0.043,0.019 -0.066,0.027"
         style="fill:#ffffff;fill-opacity:1;fill-rule:nonzero;stroke:none"
         id="path1060"
         inkscape:connector-curvature="0" /><path
         d="m 62.422,16.923 c 0.027,-0.008 0.055,-0.016 0.082,-0.024 -0.027,0.008 -0.055,0.016 -0.082,0.024"
         style="fill:#ffffff;fill-opacity:1;fill-rule:nonzero;stroke:none"
         id="path1062"
         inkscape:connector-curvature="0" /><path
         d="m 63.055,16.29 c 0.004,-0.016 0.007,-0.032 0.011,-0.047 -0.004,0.015 -0.007,0.031 -0.011,0.047"
         style="fill:#ffffff;fill-opacity:1;fill-rule:nonzero;stroke:none"
         id="path1064"
         inkscape:connector-curvature="0" /><path
         d="m 63.066,16.243 c 0.012,-0.055 0.02,-0.11 0.02,-0.168 0,0.058 -0.008,0.113 -0.02,0.168"
         style="fill:#ffffff;fill-opacity:1;fill-rule:nonzero;stroke:none"
         id="path1066"
         inkscape:connector-curvature="0" /><path
         d="m 63.02,16.403 c 0.015,-0.035 0.023,-0.074 0.035,-0.113 -0.012,0.039 -0.02,0.078 -0.035,0.113"
         style="fill:#ffffff;fill-opacity:1;fill-rule:nonzero;stroke:none"
         id="path1068"
         inkscape:connector-curvature="0" /><path
         d="m 62.57,16.872 c 0.028,-0.016 0.059,-0.028 0.086,-0.043 -0.027,0.015 -0.058,0.027 -0.086,0.043"
         style="fill:#ffffff;fill-opacity:1;fill-rule:nonzero;stroke:none"
         id="path1070"
         inkscape:connector-curvature="0" /><path
         d="m 62.656,16.829 c 0.02,-0.012 0.039,-0.028 0.055,-0.039 -0.02,0.011 -0.035,0.027 -0.055,0.039"
         style="fill:#ffffff;fill-opacity:1;fill-rule:nonzero;stroke:none"
         id="path1072"
         inkscape:connector-curvature="0" /><path
         d="m 62.84,16.68 c 0.023,-0.027 0.043,-0.05 0.062,-0.078 -0.019,0.028 -0.039,0.051 -0.062,0.078"
         style="fill:#ffffff;fill-opacity:1;fill-rule:nonzero;stroke:none"
         id="path1074"
         inkscape:connector-curvature="0" /><path
         d="m 59.121,77.669 c -0.039,0.011 -0.078,0.027 -0.117,0.043 0.039,-0.016 0.078,-0.032 0.117,-0.043"
         style="fill:#ffffff;fill-opacity:1;fill-rule:nonzero;stroke:none"
         id="path1076"
         inkscape:connector-curvature="0" /><path
         d="m 62.812,16.708 c -0.007,0.007 -0.015,0.011 -0.023,0.019 0.02,-0.015 0.035,-0.031 0.051,-0.047 -0.008,0.008 -0.016,0.02 -0.028,0.028"
         style="fill:#ffffff;fill-opacity:1;fill-rule:nonzero;stroke:none"
         id="path1078"
         inkscape:connector-curvature="0" /><path
         d="m 62.711,16.79 c 0.027,-0.024 0.055,-0.039 0.078,-0.063 -0.023,0.02 -0.051,0.039 -0.078,0.063"
         style="fill:#ffffff;fill-opacity:1;fill-rule:nonzero;stroke:none"
         id="path1080"
         inkscape:connector-curvature="0" /><path
         d="m 50.184,18.278 c 0.019,0.02 0.039,0.043 0.058,0.059 -0.019,-0.016 -0.039,-0.039 -0.058,-0.059"
         style="fill:#ffffff;fill-opacity:1;fill-rule:nonzero;stroke:none"
         id="path1082"
         inkscape:connector-curvature="0" /><path
         d="m 50.148,18.239 c 0.012,0.016 0.024,0.027 0.036,0.039 -0.012,-0.012 -0.024,-0.023 -0.036,-0.039"
         style="fill:#ffffff;fill-opacity:1;fill-rule:nonzero;stroke:none"
         id="path1084"
         inkscape:connector-curvature="0" /><path
         d="m 40.574,24.02 c -0.008,-0.027 -0.015,-0.055 -0.027,-0.082 0.012,0.027 0.019,0.055 0.027,0.082"
         style="fill:#ffffff;fill-opacity:1;fill-rule:nonzero;stroke:none"
         id="path1086"
         inkscape:connector-curvature="0" /><path
         d="m 40.594,24.235 c 0,-0.027 0,-0.055 -0.004,-0.082 0.004,0.027 0.004,0.055 0.004,0.082"
         style="fill:#ffffff;fill-opacity:1;fill-rule:nonzero;stroke:none"
         id="path1088"
         inkscape:connector-curvature="0" /><path
         d="m 40.586,24.087 c -0.004,-0.024 -0.008,-0.043 -0.012,-0.067 0.004,0.024 0.008,0.043 0.012,0.067"
         style="fill:#ffffff;fill-opacity:1;fill-rule:nonzero;stroke:none"
         id="path1090"
         inkscape:connector-curvature="0" /><path
         d="m 40.59,24.153 c 0,-0.023 -0.004,-0.043 -0.004,-0.066 0,0.023 0.004,0.043 0.004,0.066"
         style="fill:#ffffff;fill-opacity:1;fill-rule:nonzero;stroke:none"
         id="path1092"
         inkscape:connector-curvature="0" /><path
         d="m 50.348,18.415 c -0.016,-0.012 -0.032,-0.024 -0.051,-0.035 0.019,0.011 0.035,0.023 0.051,0.035"
         style="fill:#ffffff;fill-opacity:1;fill-rule:nonzero;stroke:none"
         id="path1094"
         inkscape:connector-curvature="0" /><path
         d="m 50.422,18.458 c -0.024,-0.012 -0.051,-0.028 -0.074,-0.043 0.023,0.015 0.05,0.031 0.074,0.043"
         style="fill:#ffffff;fill-opacity:1;fill-rule:nonzero;stroke:none"
         id="path1096"
         inkscape:connector-curvature="0" /><path
         d="m 50.449,18.469 c -0.008,-0.004 -0.015,-0.007 -0.027,-0.011 0.012,0.004 0.019,0.007 0.027,0.011"
         style="fill:#ffffff;fill-opacity:1;fill-rule:nonzero;stroke:none"
         id="path1098"
         inkscape:connector-curvature="0" /><path
         d="m 50.148,18.239 c -0.031,-0.035 -0.058,-0.074 -0.082,-0.117 0.024,0.043 0.051,0.082 0.082,0.117"
         style="fill:#ffffff;fill-opacity:1;fill-rule:nonzero;stroke:none"
         id="path1100"
         inkscape:connector-curvature="0" /><path
         d="m 50.297,18.38 c -0.016,-0.012 -0.035,-0.028 -0.055,-0.043 0.02,0.015 0.039,0.031 0.055,0.043"
         style="fill:#ffffff;fill-opacity:1;fill-rule:nonzero;stroke:none"
         id="path1102"
         inkscape:connector-curvature="0" /><path
         d="m 62.422,16.923 c -0.024,0.003 -0.043,0.011 -0.067,0.015 -0.003,0 -0.007,0 -0.011,0.004 0.027,-0.008 0.051,-0.016 0.078,-0.019"
         style="fill:#ffffff;fill-opacity:1;fill-rule:nonzero;stroke:none"
         id="path1104"
         inkscape:connector-curvature="0" /><path
         d="M 62.992,16.458 C 63,16.442 63.012,16.423 63.02,16.403 63.012,16.423 63,16.438 62.992,16.458"
         style="fill:#ffffff;fill-opacity:1;fill-rule:nonzero;stroke:none"
         id="path1106"
         inkscape:connector-curvature="0" /><path
         d="m 88.227,60.505 c -0.043,0.035 -0.086,0.082 -0.125,0.128 0.039,-0.046 0.082,-0.093 0.125,-0.128"
         style="fill:#ffffff;fill-opacity:1;fill-rule:nonzero;stroke:none"
         id="path1108"
         inkscape:connector-curvature="0" /><path
         d="m 88.57,60.333 c 0.008,-0.004 0.02,-0.004 0.032,-0.004 -0.012,0 -0.024,0 -0.032,0.004"
         style="fill:#ffffff;fill-opacity:1;fill-rule:nonzero;stroke:none"
         id="path1110"
         inkscape:connector-curvature="0" /><path
         d="m 88.602,60.329 c 0.058,-0.016 0.117,-0.024 0.179,-0.024 -0.062,0 -0.121,0.008 -0.179,0.024"
         style="fill:#ffffff;fill-opacity:1;fill-rule:nonzero;stroke:none"
         id="path1112"
         inkscape:connector-curvature="0" /><path
         d="m 88.234,60.497 c 0,0.004 -0.004,0.004 -0.007,0.008 0.003,-0.004 0.007,-0.004 0.007,-0.008"
         style="fill:#ffffff;fill-opacity:1;fill-rule:nonzero;stroke:none"
         id="path1114"
         inkscape:connector-curvature="0" /><path
         d="m 91.148,48.876 c 0.008,0.047 0.02,0.089 0.036,0.132 -0.016,-0.043 -0.028,-0.085 -0.036,-0.132"
         style="fill:#ffffff;fill-opacity:1;fill-rule:nonzero;stroke:none"
         id="path1116"
         inkscape:connector-curvature="0" /><path
         d="m 91.184,49.008 c 0.007,0.016 0.015,0.032 0.023,0.047 -0.008,-0.015 -0.016,-0.031 -0.023,-0.047"
         style="fill:#ffffff;fill-opacity:1;fill-rule:nonzero;stroke:none"
         id="path1118"
         inkscape:connector-curvature="0" /><path
         d="m 88.406,60.391 c 0.051,-0.023 0.106,-0.043 0.164,-0.058 -0.058,0.015 -0.113,0.035 -0.164,0.058"
         style="fill:#ffffff;fill-opacity:1;fill-rule:nonzero;stroke:none"
         id="path1120"
         inkscape:connector-curvature="0" /><path
         d="m 81,70.196 c 0.02,-0.106 0.062,-0.203 0.117,-0.293 0.016,-0.023 0.028,-0.039 0.035,-0.051 -0.074,0.102 -0.125,0.223 -0.152,0.344"
         style="fill:#ffffff;fill-opacity:1;fill-rule:nonzero;stroke:none"
         id="path1122"
         inkscape:connector-curvature="0" /><path
         d="m 81.043,70.684 c 0.019,0.043 0.039,0.086 0.062,0.129 -0.023,-0.043 -0.043,-0.086 -0.062,-0.129"
         style="fill:#ffffff;fill-opacity:1;fill-rule:nonzero;stroke:none"
         id="path1124"
         inkscape:connector-curvature="0" /><path
         d="m 88.379,60.403 c 0.012,0 0.019,-0.008 0.027,-0.012 -0.008,0.004 -0.015,0.012 -0.027,0.012"
         style="fill:#ffffff;fill-opacity:1;fill-rule:nonzero;stroke:none"
         id="path1126"
         inkscape:connector-curvature="0" /><path
         d="m 59.004,77.712 c -0.016,0.007 -0.027,0.015 -0.043,0.023 0.016,-0.008 0.027,-0.016 0.043,-0.023"
         style="fill:#ffffff;fill-opacity:1;fill-rule:nonzero;stroke:none"
         id="path1128"
         inkscape:connector-curvature="0" /><path
         d="m 91.207,49.055 c 0.016,0.035 0.031,0.071 0.051,0.102 -0.02,-0.031 -0.035,-0.067 -0.051,-0.102"
         style="fill:#ffffff;fill-opacity:1;fill-rule:nonzero;stroke:none"
         id="path1130"
         inkscape:connector-curvature="0" /><path
         d="m 91.625,49.493 c 0.016,0.012 0.035,0.019 0.055,0.027 -0.02,-0.008 -0.039,-0.015 -0.055,-0.027"
         style="fill:#ffffff;fill-opacity:1;fill-rule:nonzero;stroke:none"
         id="path1132"
         inkscape:connector-curvature="0" /><path
         d="m 91.789,49.555 c 0.016,0.004 0.031,0.012 0.047,0.012 -0.016,0 -0.031,-0.008 -0.047,-0.012"
         style="fill:#ffffff;fill-opacity:1;fill-rule:nonzero;stroke:none"
         id="path1134"
         inkscape:connector-curvature="0" /><path
         d="m 91.68,49.52 c 0.035,0.016 0.074,0.028 0.109,0.035 -0.035,-0.007 -0.074,-0.019 -0.109,-0.035"
         style="fill:#ffffff;fill-opacity:1;fill-rule:nonzero;stroke:none"
         id="path1136"
         inkscape:connector-curvature="0" /><path
         d="m 91.836,49.567 c 0.055,0.012 0.113,0.02 0.172,0.02 -0.059,0 -0.117,-0.008 -0.172,-0.02"
         style="fill:#ffffff;fill-opacity:1;fill-rule:nonzero;stroke:none"
         id="path1138"
         inkscape:connector-curvature="0" /><path
         d="m 81.031,70.637 c 0.004,0.016 0.008,0.032 0.012,0.047 -0.004,-0.015 -0.008,-0.031 -0.012,-0.047"
         style="fill:#ffffff;fill-opacity:1;fill-rule:nonzero;stroke:none"
         id="path1140"
         inkscape:connector-curvature="0" /><path
         d="m 91.141,48.844 c 0.004,0.012 0.007,0.024 0.007,0.032 0,-0.008 -0.003,-0.016 -0.007,-0.028 0,0 0,-0.004 0,-0.004"
         style="fill:#ffffff;fill-opacity:1;fill-rule:nonzero;stroke:none"
         id="path1142"
         inkscape:connector-curvature="0" /><path
         d="m 91.258,49.157 c 0.008,0.019 0.019,0.035 0.031,0.051 -0.012,-0.016 -0.023,-0.032 -0.031,-0.051"
         style="fill:#ffffff;fill-opacity:1;fill-rule:nonzero;stroke:none"
         id="path1144"
         inkscape:connector-curvature="0" /><path
         d="m 91.371,49.313 c -0.004,-0.004 -0.008,-0.015 -0.016,-0.023 0.016,0.019 0.032,0.031 0.047,0.047 -0.011,-0.008 -0.019,-0.016 -0.031,-0.024"
         style="fill:#ffffff;fill-opacity:1;fill-rule:nonzero;stroke:none"
         id="path1146"
         inkscape:connector-curvature="0" /><path
         d="m 91.289,49.208 c 0.02,0.027 0.043,0.058 0.066,0.082 -0.023,-0.024 -0.046,-0.055 -0.066,-0.082"
         style="fill:#ffffff;fill-opacity:1;fill-rule:nonzero;stroke:none"
         id="path1148"
         inkscape:connector-curvature="0" /><path
         d="m 91.531,49.442 c 0.031,0.02 0.063,0.035 0.094,0.051 -0.031,-0.016 -0.063,-0.031 -0.094,-0.051"
         style="fill:#ffffff;fill-opacity:1;fill-rule:nonzero;stroke:none"
         id="path1150"
         inkscape:connector-curvature="0" /><path
         d="m 91.48,49.403 c 0.016,0.016 0.032,0.027 0.051,0.039 -0.019,-0.012 -0.035,-0.023 -0.051,-0.039"
         style="fill:#ffffff;fill-opacity:1;fill-rule:nonzero;stroke:none"
         id="path1152"
         inkscape:connector-curvature="0" /><path
         d="m 91.402,49.337 c 0.024,0.023 0.051,0.046 0.078,0.066 -0.027,-0.02 -0.054,-0.043 -0.078,-0.066"
         style="fill:#ffffff;fill-opacity:1;fill-rule:nonzero;stroke:none"
         id="path1154"
         inkscape:connector-curvature="0" /><path
         d="m 88.234,60.497 c 0.047,-0.035 0.094,-0.067 0.145,-0.094 -0.051,0.027 -0.098,0.059 -0.145,0.094"
         style="fill:#ffffff;fill-opacity:1;fill-rule:nonzero;stroke:none"
         id="path1156"
         inkscape:connector-curvature="0" /><path
         d="m 58.617,78.067 c -0.008,0.012 -0.015,0.027 -0.023,0.039 0.008,-0.012 0.015,-0.027 0.023,-0.039"
         style="fill:#ffffff;fill-opacity:1;fill-rule:nonzero;stroke:none"
         id="path1158"
         inkscape:connector-curvature="0" /><path
         d="m 58.664,77.997 c -0.016,0.019 -0.031,0.047 -0.047,0.07 0.016,-0.023 0.031,-0.051 0.047,-0.07"
         style="fill:#ffffff;fill-opacity:1;fill-rule:nonzero;stroke:none"
         id="path1160"
         inkscape:connector-curvature="0" /><path
         d="m 58.594,78.106 c -0.02,0.039 -0.039,0.082 -0.051,0.125 0.012,-0.043 0.031,-0.086 0.051,-0.125"
         style="fill:#ffffff;fill-opacity:1;fill-rule:nonzero;stroke:none"
         id="path1162"
         inkscape:connector-curvature="0" /><path
         d="m 71.227,76.165 c 0.015,0.008 0.031,0.019 0.05,0.031 -0.019,-0.012 -0.035,-0.023 -0.05,-0.031"
         style="fill:#ffffff;fill-opacity:1;fill-rule:nonzero;stroke:none"
         id="path1164"
         inkscape:connector-curvature="0" /><path
         d="m 58.695,77.954 c -0.011,0.011 -0.023,0.027 -0.031,0.043 0.008,-0.016 0.02,-0.032 0.031,-0.043"
         style="fill:#ffffff;fill-opacity:1;fill-rule:nonzero;stroke:none"
         id="path1166"
         inkscape:connector-curvature="0" /><path
         d="m 71.152,76.122 c 0.024,0.011 0.051,0.027 0.075,0.043 -0.024,-0.016 -0.051,-0.032 -0.075,-0.043"
         style="fill:#ffffff;fill-opacity:1;fill-rule:nonzero;stroke:none"
         id="path1168"
         inkscape:connector-curvature="0" /><path
         d="m 71.121,76.11 c 0.012,0 0.024,0.008 0.031,0.012 -0.007,-0.004 -0.019,-0.012 -0.031,-0.012"
         style="fill:#ffffff;fill-opacity:1;fill-rule:nonzero;stroke:none"
         id="path1170"
         inkscape:connector-curvature="0" /><path
         d="m 58.961,77.735 c -0.023,0.012 -0.047,0.027 -0.07,0.043 0.023,-0.016 0.047,-0.031 0.07,-0.043"
         style="fill:#ffffff;fill-opacity:1;fill-rule:nonzero;stroke:none"
         id="path1172"
         inkscape:connector-curvature="0" /><path
         d="m 58.891,77.778 c -0.016,0.008 -0.028,0.02 -0.043,0.031 0.015,-0.011 0.027,-0.023 0.043,-0.031"
         style="fill:#ffffff;fill-opacity:1;fill-rule:nonzero;stroke:none"
         id="path1174"
         inkscape:connector-curvature="0" /><path
         d="m 58.785,77.86 c -0.012,0.012 -0.023,0.023 -0.035,0.035 0.012,-0.012 0.023,-0.023 0.035,-0.035"
         style="fill:#ffffff;fill-opacity:1;fill-rule:nonzero;stroke:none"
         id="path1176"
         inkscape:connector-curvature="0" /><path
         d="m 58.75,77.895 c -0.02,0.02 -0.039,0.039 -0.055,0.059 0.016,-0.02 0.035,-0.039 0.055,-0.059"
         style="fill:#ffffff;fill-opacity:1;fill-rule:nonzero;stroke:none"
         id="path1178"
         inkscape:connector-curvature="0" /><path
         d="m 58.848,77.809 c -0.02,0.016 -0.043,0.031 -0.063,0.051 0.02,-0.02 0.043,-0.035 0.063,-0.051"
         style="fill:#ffffff;fill-opacity:1;fill-rule:nonzero;stroke:none"
         id="path1180"
         inkscape:connector-curvature="0" /><path
         d="M 80.996,70.489 C 81,70.508 81,70.532 81.004,70.551 81,70.532 81,70.508 80.996,70.489"
         style="fill:#ffffff;fill-opacity:1;fill-rule:nonzero;stroke:none"
         id="path1182"
         inkscape:connector-curvature="0" /><path
         d="m 80.988,70.423 c 0,0.019 0.004,0.042 0.008,0.066 -0.004,-0.024 -0.008,-0.043 -0.008,-0.066"
         style="fill:#ffffff;fill-opacity:1;fill-rule:nonzero;stroke:none"
         id="path1184"
         inkscape:connector-curvature="0" /><path
         d="m 80.988,70.298 c 0,0.015 0,0.031 -0.004,0.046 0.004,-0.015 0.004,-0.031 0.004,-0.046"
         style="fill:#ffffff;fill-opacity:1;fill-rule:nonzero;stroke:none"
         id="path1186"
         inkscape:connector-curvature="0" /><path
         d="m 71.277,76.196 c 0.016,0.016 0.035,0.027 0.051,0.043 -0.016,-0.016 -0.035,-0.027 -0.051,-0.043"
         style="fill:#ffffff;fill-opacity:1;fill-rule:nonzero;stroke:none"
         id="path1188"
         inkscape:connector-curvature="0" /><path
         d="m 81.004,70.551 c 0.008,0.028 0.016,0.059 0.027,0.086 -0.011,-0.027 -0.019,-0.058 -0.027,-0.086"
         style="fill:#ffffff;fill-opacity:1;fill-rule:nonzero;stroke:none"
         id="path1190"
         inkscape:connector-curvature="0" /><path
         d="m 81,70.2 c -0.004,0.031 -0.008,0.066 -0.012,0.098 C 80.992,70.266 80.996,70.231 81,70.2"
         style="fill:#ffffff;fill-opacity:1;fill-rule:nonzero;stroke:none"
         id="path1192"
         inkscape:connector-curvature="0" /><path
         d="m 80.984,70.344 c 0,0.028 0.004,0.051 0.004,0.079 -0.004,-0.028 -0.004,-0.051 -0.004,-0.079"
         style="fill:#ffffff;fill-opacity:1;fill-rule:nonzero;stroke:none"
         id="path1194"
         inkscape:connector-curvature="0" /><path
         d="m 71.426,76.333 c -0.012,-0.012 -0.024,-0.024 -0.035,-0.035 0.011,0.011 0.023,0.023 0.035,0.035"
         style="fill:#ffffff;fill-opacity:1;fill-rule:nonzero;stroke:none"
         id="path1196"
         inkscape:connector-curvature="0" /><path
         d="m 71.391,76.298 c -0.02,-0.02 -0.039,-0.04 -0.063,-0.059 0.024,0.019 0.043,0.039 0.063,0.059"
         style="fill:#ffffff;fill-opacity:1;fill-rule:nonzero;stroke:none"
         id="path1198"
         inkscape:connector-curvature="0" /><path
         d="m 71.121,76.11 c -0.144,-0.066 -0.305,-0.094 -0.469,-0.074 0.02,0 0.043,-0.004 0.075,-0.008 0.136,-0.004 0.273,0.023 0.394,0.082"
         style="fill:#ffffff;fill-opacity:1;fill-rule:nonzero;stroke:none"
         id="path1200"
         inkscape:connector-curvature="0" /><path
         d="m 71.426,76.333 c 0.027,0.035 0.054,0.074 0.082,0.113 -0.028,-0.039 -0.055,-0.078 -0.082,-0.113"
         style="fill:#ffffff;fill-opacity:1;fill-rule:nonzero;stroke:none"
         id="path1202"
         inkscape:connector-curvature="0" /><path
         d="M 57.902,21.579 C 44.988,23.02 34.914,34.001 34.914,47.29 c 0,14.269 11.609,25.875 25.875,25.875 14.27,0 25.875,-11.606 25.875,-25.875 0,-3.438 -0.676,-6.719 -1.898,-9.727 0.367,0.164 0.738,0.297 1.105,0.395 0.328,0.09 0.656,0.152 0.988,0.195 1.008,2.863 1.555,5.937 1.555,9.137 0,15.234 -12.391,27.625 -27.625,27.625 -15.23,0 -27.625,-12.391 -27.625,-27.625 0,-14.676 11.508,-26.715 25.973,-27.575 -0.047,0.055 -0.094,0.106 -0.141,0.165 -0.418,0.511 -0.785,1.082 -1.094,1.699"
         style="fill:#ffffff;fill-opacity:1;fill-rule:nonzero;stroke:none"
         id="path1204"
         inkscape:connector-curvature="0" /><path
         d="M 36.504,45.102 58.797,34.59 c 0.187,0.254 0.391,0.497 0.601,0.727 0.204,0.219 0.418,0.426 0.641,0.621 l -21.5,10.141 -2.445,-0.039 0.41,-0.938"
         style="fill:#ffffff;fill-opacity:1;fill-rule:nonzero;stroke:none"
         id="path1206"
         inkscape:connector-curvature="0" /><path
         d="m 35.504,46.423 c -0.156,-0.247 -0.43,-0.399 -0.719,-0.403 l 1.309,0.02 -0.52,1.203 c 0.114,-0.266 0.09,-0.578 -0.07,-0.82"
         style="fill:#ffffff;fill-opacity:1;fill-rule:nonzero;stroke:none"
         id="path1208"
         inkscape:connector-curvature="0" /><path
         d="m 43.074,29.997 -0.211,0.476 -0.519,0.043 c 0.32,-0.027 0.601,-0.226 0.73,-0.519"
         style="fill:#ffffff;fill-opacity:1;fill-rule:nonzero;stroke:none"
         id="path1210"
         inkscape:connector-curvature="0" /><path
         d="m 87.531,46.84 c 0.485,0.008 0.867,0.407 0.86,0.887 -0.004,0.485 -0.403,0.871 -0.887,0.863 l -52.559,-0.816 3.594,-1.695 48.992,0.761"
         style="fill:#ffffff;fill-opacity:1;fill-rule:nonzero;stroke:none"
         id="path1212"
         inkscape:connector-curvature="0" /><path
         d="m 42.863,30.473 0.211,-0.476 c -0.129,0.293 -0.41,0.492 -0.73,0.519 l 0.519,-0.043 -6.359,14.629 -2.402,1.133 7.367,-16.937 c 0.129,-0.297 0.406,-0.497 0.726,-0.524 l 14.496,-1.226 c 0.008,0.605 0.043,1.187 0.11,1.746 l -13.938,1.179"
         style="fill:#ffffff;fill-opacity:1;fill-rule:nonzero;stroke:none"
         id="path1214"
         inkscape:connector-curvature="0" /><path
         d="m 34.035,47.372 c 0.156,0.242 0.43,0.394 0.723,0.398 l 0.187,0.004 -0.449,0.211 c -0.437,0.207 -0.961,0.02 -1.164,-0.418 -0.207,-0.437 -0.02,-0.957 0.418,-1.164 l 0.352,-0.168 -0.133,0.313 c -0.117,0.269 -0.094,0.574 0.066,0.824"
         style="fill:#ffffff;fill-opacity:1;fill-rule:nonzero;stroke:none"
         id="path1216"
         inkscape:connector-curvature="0" /><path
         d="m 36.094,46.04 -1.309,-0.02 c 0.289,0.004 0.563,0.156 0.719,0.403 0.16,0.242 0.184,0.554 0.07,0.82 l 0.52,-1.203 2.445,0.039 -3.594,1.695 -0.187,-0.004 c -0.293,-0.004 -0.567,-0.156 -0.723,-0.398 -0.16,-0.25 -0.183,-0.555 -0.066,-0.824 l 0.133,-0.313 2.402,-1.133 -0.41,0.938"
         style="fill:#ffffff;fill-opacity:1;fill-rule:nonzero;stroke:none"
         id="path1218"
         inkscape:connector-curvature="0" /><path
         d="m 56.738,28.661 -19.754,11.687 -1.39,-0.726 c 0.281,0.144 0.461,0.433 0.468,0.75 0.008,0.32 -0.156,0.613 -0.429,0.777 l 1.351,-0.801 44.61,23.356 c 0.426,0.222 0.594,0.75 0.367,1.179 -0.223,0.43 -0.75,0.594 -1.18,0.372 l -46,-24.082 C 34.5,41.024 34.32,40.735 34.312,40.419 c -0.007,-0.317 0.157,-0.614 0.43,-0.778 L 56.699,26.653 c -0.008,0.219 -0.011,0.437 -0.011,0.664 0,0.461 0.015,0.91 0.05,1.344"
         style="fill:#ffffff;fill-opacity:1;fill-rule:nonzero;stroke:none"
         id="path1220"
         inkscape:connector-curvature="0" /><path
         d="m 36.062,40.372 c -0.007,-0.317 -0.187,-0.606 -0.468,-0.75 l 1.39,0.726 -1.351,0.801 c 0.273,-0.164 0.437,-0.457 0.429,-0.777"
         style="fill:#ffffff;fill-opacity:1;fill-rule:nonzero;stroke:none"
         id="path1222"
         inkscape:connector-curvature="0" /><path
         d="M 60.098,35.993 44.617,68.176 c -0.195,0.407 -0.664,0.598 -1.086,0.446 -0.422,-0.153 -0.66,-0.602 -0.551,-1.035 L 54.672,21.059 c 0.117,-0.469 0.594,-0.754 1.062,-0.636 0.469,0.117 0.754,0.593 0.633,1.062 l -9.586,38.16 -3.738,7.774 c 0.191,-0.403 0.664,-0.598 1.086,-0.442 0.422,0.153 0.66,0.602 0.551,1.035 L 46.781,59.645 58.82,34.618 c 0.18,0.242 0.375,0.476 0.578,0.699 0.223,0.238 0.457,0.465 0.7,0.676"
         style="fill:#ffffff;fill-opacity:1;fill-rule:nonzero;stroke:none"
         id="path1224"
         inkscape:connector-curvature="0" /><path
         d="m 44.129,66.977 c -0.422,-0.156 -0.895,0.039 -1.086,0.442 l 3.738,-7.774 -2.101,8.367 c 0.109,-0.433 -0.129,-0.882 -0.551,-1.035"
         style="fill:#ffffff;fill-opacity:1;fill-rule:nonzero;stroke:none"
         id="path1226"
         inkscape:connector-curvature="0" /><path
         d="M 36.863,57.215 C 36.531,57.028 36.117,57.079 35.84,57.34 l 2.004,-1.875 -0.551,2.688 c 0.078,-0.371 -0.098,-0.75 -0.43,-0.938"
         style="fill:#ffffff;fill-opacity:1;fill-rule:nonzero;stroke:none"
         id="path1228"
         inkscape:connector-curvature="0" /><path
         d="M 60.727,36.485 37.035,58.618 c -0.277,0.262 -0.695,0.308 -1.027,0.125 -0.332,-0.188 -0.504,-0.567 -0.43,-0.938 l 5.789,-28.328 c 0.098,-0.472 0.559,-0.777 1.035,-0.679 0.473,0.093 0.778,0.554 0.68,1.031 L 37.844,55.465 35.84,57.34 c 0.277,-0.261 0.691,-0.312 1.023,-0.125 0.332,0.188 0.508,0.567 0.43,0.938 l 0.551,-2.688 21.562,-20.144 c 0.403,0.437 0.848,0.824 1.321,1.164"
         style="fill:#ffffff;fill-opacity:1;fill-rule:nonzero;stroke:none"
         id="path1230"
         inkscape:connector-curvature="0" /><path
         d="M 44.5,68.298 C 44.23,68.7 43.688,68.809 43.285,68.54 42.883,68.274 42.773,67.727 43.043,67.329 L 62.84,37.598 c 0.578,0.211 1.176,0.367 1.793,0.465 L 44.5,68.298"
         style="fill:#ffffff;fill-opacity:1;fill-rule:nonzero;stroke:none"
         id="path1232"
         inkscape:connector-curvature="0" /><path
         d="m 70.516,22.985 c 0,-0.16 -0.008,-0.301 -0.016,-0.422 -0.008,-0.117 -0.027,-0.219 -0.051,-0.301 -0.023,-0.082 -0.051,-0.152 -0.086,-0.214 -0.035,-0.063 -0.109,-0.157 -0.23,-0.278 -0.121,-0.121 -0.324,-0.269 -0.61,-0.449 -0.289,-0.18 -0.613,-0.336 -0.968,-0.477 -0.364,-0.14 -0.75,-0.254 -1.172,-0.339 -0.422,-0.086 -0.86,-0.129 -1.309,-0.129 -0.929,0 -1.754,0.152 -2.472,0.461 -0.719,0.304 -1.321,0.753 -1.805,1.343 -0.481,0.586 -0.852,1.313 -1.106,2.168 -0.253,0.86 -0.379,1.848 -0.379,2.969 0,1.273 0.157,2.371 0.465,3.285 0.313,0.914 0.739,1.664 1.282,2.25 0.539,0.586 1.175,1.02 1.91,1.301 0.734,0.281 1.523,0.426 2.379,0.426 0.41,0 0.812,-0.039 1.199,-0.117 0.387,-0.079 0.746,-0.176 1.07,-0.301 0.324,-0.125 0.617,-0.27 0.871,-0.434 0.254,-0.16 0.438,-0.301 0.551,-0.418 0.117,-0.113 0.195,-0.207 0.238,-0.269 0.043,-0.071 0.078,-0.149 0.11,-0.242 0.027,-0.09 0.047,-0.192 0.054,-0.309 0.012,-0.117 0.016,-0.262 0.016,-0.434 0,-0.375 -0.043,-0.636 -0.129,-0.785 -0.086,-0.148 -0.191,-0.222 -0.316,-0.222 -0.145,0 -0.309,0.078 -0.496,0.238 -0.188,0.16 -0.426,0.336 -0.711,0.527 -0.289,0.192 -0.637,0.367 -1.043,0.527 -0.407,0.157 -0.891,0.239 -1.446,0.239 -1.14,0 -2.015,-0.438 -2.625,-1.317 -0.605,-0.875 -0.91,-2.144 -0.91,-3.812 0,-0.832 0.078,-1.563 0.235,-2.192 0.16,-0.625 0.39,-1.148 0.699,-1.574 0.305,-0.418 0.683,-0.73 1.129,-0.937 0.445,-0.207 0.953,-0.309 1.531,-0.309 0.547,0 1.023,0.086 1.437,0.258 0.411,0.172 0.77,0.363 1.071,0.57 0.301,0.203 0.555,0.391 0.762,0.559 0.207,0.168 0.367,0.254 0.48,0.254 0.066,0 0.125,-0.02 0.172,-0.059 0.051,-0.039 0.09,-0.101 0.125,-0.191 0.031,-0.094 0.055,-0.207 0.07,-0.348 0.016,-0.137 0.024,-0.301 0.024,-0.496"
         style="fill:#ffffff;fill-opacity:1;fill-rule:nonzero;stroke:none"
         id="path1234"
         inkscape:connector-curvature="0" /><path
         d="m 92.289,20.993 c 0,-0.078 -0.019,-0.141 -0.059,-0.195 -0.039,-0.051 -0.101,-0.098 -0.187,-0.137 -0.086,-0.039 -0.207,-0.067 -0.359,-0.086 -0.157,-0.02 -0.348,-0.027 -0.579,-0.027 -0.238,0 -0.437,0.007 -0.589,0.027 -0.153,0.019 -0.278,0.047 -0.368,0.086 -0.089,0.039 -0.156,0.086 -0.195,0.137 -0.039,0.054 -0.055,0.117 -0.055,0.195 v 7.867 c 0,0.551 -0.05,1.047 -0.144,1.5 -0.098,0.449 -0.25,0.836 -0.461,1.164 -0.211,0.328 -0.481,0.574 -0.809,0.746 -0.324,0.176 -0.707,0.262 -1.148,0.262 -0.547,0 -1.098,-0.211 -1.648,-0.633 -0.555,-0.422 -1.161,-1.043 -1.821,-1.859 v -9.047 c 0,-0.078 -0.019,-0.141 -0.058,-0.195 -0.039,-0.051 -0.106,-0.098 -0.196,-0.137 -0.09,-0.039 -0.215,-0.067 -0.367,-0.086 -0.152,-0.02 -0.344,-0.027 -0.574,-0.027 -0.223,0 -0.41,0.007 -0.57,0.027 -0.157,0.019 -0.282,0.047 -0.375,0.086 -0.09,0.039 -0.153,0.086 -0.188,0.137 -0.031,0.054 -0.047,0.117 -0.047,0.195 v 7.867 c 0,0.551 -0.054,1.047 -0.16,1.5 -0.105,0.449 -0.262,0.836 -0.473,1.164 -0.211,0.328 -0.476,0.574 -0.797,0.746 -0.32,0.176 -0.703,0.262 -1.14,0.262 -0.547,0 -1.098,-0.211 -1.652,-0.633 -0.555,-0.422 -1.161,-1.043 -1.809,-1.859 v -9.047 c 0,-0.078 -0.02,-0.141 -0.059,-0.195 -0.039,-0.051 -0.101,-0.098 -0.187,-0.137 -0.086,-0.039 -0.207,-0.067 -0.36,-0.086 -0.156,-0.02 -0.351,-0.027 -0.589,-0.027 -0.231,0 -0.422,0.007 -0.578,0.027 -0.153,0.019 -0.274,0.047 -0.368,0.086 -0.09,0.039 -0.152,0.086 -0.187,0.137 -0.031,0.054 -0.047,0.117 -0.047,0.195 v 12.953 c 0,0.074 0.012,0.141 0.043,0.191 0.027,0.055 0.086,0.102 0.172,0.145 0.086,0.043 0.195,0.07 0.332,0.086 0.133,0.015 0.308,0.023 0.531,0.023 0.211,0 0.387,-0.008 0.524,-0.023 0.14,-0.016 0.25,-0.043 0.324,-0.086 0.078,-0.043 0.133,-0.09 0.168,-0.145 0.031,-0.05 0.05,-0.117 0.05,-0.191 v -1.715 c 0.727,0.817 1.434,1.414 2.118,1.793 0.687,0.379 1.379,0.57 2.078,0.57 0.535,0 1.015,-0.062 1.441,-0.187 0.43,-0.125 0.805,-0.301 1.129,-0.527 0.328,-0.227 0.606,-0.497 0.832,-0.805 0.231,-0.313 0.422,-0.66 0.578,-1.047 0.43,0.473 0.84,0.871 1.231,1.199 0.386,0.324 0.761,0.59 1.121,0.789 0.359,0.203 0.711,0.348 1.051,0.438 0.339,0.094 0.683,0.14 1.031,0.14 0.836,0 1.535,-0.148 2.101,-0.441 0.567,-0.293 1.024,-0.684 1.375,-1.172 0.348,-0.488 0.598,-1.062 0.746,-1.719 0.153,-0.66 0.227,-1.351 0.227,-2.082 v -8.187"
         style="fill:#ffffff;fill-opacity:1;fill-rule:nonzero;stroke:none"
         id="path1236"
         inkscape:connector-curvature="0" /><path
         d="m 115.23,20.993 c 0,-0.078 -0.019,-0.141 -0.058,-0.195 -0.039,-0.051 -0.102,-0.098 -0.188,-0.137 -0.086,-0.039 -0.207,-0.067 -0.359,-0.086 -0.152,-0.02 -0.348,-0.027 -0.578,-0.027 -0.238,0 -0.434,0.007 -0.59,0.027 -0.152,0.019 -0.273,0.047 -0.367,0.086 -0.09,0.039 -0.156,0.086 -0.195,0.137 -0.036,0.054 -0.055,0.117 -0.055,0.195 v 7.867 c 0,0.551 -0.051,1.047 -0.145,1.5 -0.097,0.449 -0.25,0.836 -0.461,1.164 -0.211,0.328 -0.48,0.574 -0.804,0.746 -0.328,0.176 -0.711,0.262 -1.153,0.262 -0.547,0 -1.097,-0.211 -1.648,-0.633 -0.551,-0.422 -1.16,-1.043 -1.82,-1.859 v -9.047 c 0,-0.078 -0.02,-0.141 -0.059,-0.195 -0.039,-0.051 -0.102,-0.098 -0.195,-0.137 -0.09,-0.039 -0.211,-0.067 -0.367,-0.086 -0.153,-0.02 -0.344,-0.027 -0.575,-0.027 -0.222,0 -0.41,0.007 -0.57,0.027 -0.156,0.019 -0.281,0.047 -0.371,0.086 -0.094,0.039 -0.156,0.086 -0.188,0.137 -0.035,0.054 -0.05,0.117 -0.05,0.195 v 7.867 c 0,0.551 -0.055,1.047 -0.161,1.5 -0.105,0.449 -0.261,0.836 -0.472,1.164 -0.211,0.328 -0.477,0.574 -0.797,0.746 -0.32,0.176 -0.703,0.262 -1.141,0.262 -0.547,0 -1.097,-0.211 -1.652,-0.633 -0.555,-0.422 -1.16,-1.043 -1.809,-1.859 v -9.047 c 0,-0.078 -0.019,-0.141 -0.058,-0.195 -0.039,-0.051 -0.102,-0.098 -0.188,-0.137 -0.086,-0.039 -0.207,-0.067 -0.359,-0.086 -0.152,-0.02 -0.352,-0.027 -0.59,-0.027 -0.23,0 -0.422,0.007 -0.578,0.027 -0.152,0.019 -0.274,0.047 -0.363,0.086 -0.094,0.039 -0.157,0.086 -0.188,0.137 -0.035,0.054 -0.051,0.117 -0.051,0.195 v 12.953 c 0,0.074 0.012,0.141 0.043,0.191 0.028,0.055 0.086,0.102 0.172,0.145 0.086,0.043 0.196,0.07 0.332,0.086 0.133,0.015 0.313,0.023 0.531,0.023 0.211,0 0.387,-0.008 0.528,-0.023 0.137,-0.016 0.246,-0.043 0.32,-0.086 0.078,-0.043 0.133,-0.09 0.168,-0.145 0.031,-0.05 0.051,-0.117 0.051,-0.191 v -1.715 c 0.726,0.817 1.433,1.414 2.117,1.793 0.688,0.379 1.379,0.57 2.078,0.57 0.535,0 1.016,-0.062 1.445,-0.187 0.426,-0.125 0.801,-0.301 1.126,-0.527 0.328,-0.227 0.605,-0.497 0.835,-0.805 0.227,-0.313 0.422,-0.66 0.575,-1.047 0.429,0.473 0.84,0.871 1.23,1.199 0.387,0.324 0.762,0.59 1.121,0.789 0.36,0.203 0.711,0.348 1.051,0.438 0.344,0.094 0.684,0.14 1.031,0.14 0.836,0 1.535,-0.148 2.102,-0.441 0.566,-0.293 1.023,-0.684 1.375,-1.172 0.351,-0.488 0.597,-1.062 0.75,-1.719 0.148,-0.66 0.222,-1.351 0.222,-2.082 v -8.187"
         style="fill:#ffffff;fill-opacity:1;fill-rule:nonzero;stroke:none"
         id="path1238"
         inkscape:connector-curvature="0" /><path
         d="m 121.344,20.993 c 0,-0.078 -0.02,-0.141 -0.059,-0.195 -0.039,-0.051 -0.101,-0.098 -0.187,-0.137 -0.086,-0.039 -0.207,-0.067 -0.36,-0.086 -0.152,-0.02 -0.351,-0.027 -0.59,-0.027 -0.23,0 -0.421,0.007 -0.574,0.027 -0.156,0.019 -0.277,0.047 -0.367,0.086 -0.094,0.039 -0.156,0.086 -0.187,0.137 -0.036,0.054 -0.051,0.117 -0.051,0.195 v 12.953 c 0,0.062 0.015,0.125 0.051,0.187 0.031,0.055 0.093,0.102 0.187,0.141 0.09,0.039 0.211,0.066 0.367,0.086 0.153,0.02 0.344,0.031 0.574,0.031 0.239,0 0.438,-0.011 0.59,-0.031 0.153,-0.02 0.274,-0.047 0.36,-0.086 0.086,-0.039 0.148,-0.086 0.187,-0.141 0.039,-0.062 0.059,-0.125 0.059,-0.187 z m 0.281,17.316 c 0,-0.554 -0.105,-0.933 -0.316,-1.133 -0.211,-0.199 -0.602,-0.3 -1.168,-0.3 -0.555,0 -0.938,0.097 -1.145,0.293 -0.207,0.195 -0.308,0.566 -0.308,1.113 0,0.555 0.105,0.933 0.316,1.133 0.211,0.203 0.601,0.304 1.168,0.304 0.555,0 0.937,-0.097 1.144,-0.296 0.204,-0.196 0.309,-0.567 0.309,-1.114"
         style="fill:#ffffff;fill-opacity:1;fill-rule:nonzero;stroke:none"
         id="path1240"
         inkscape:connector-curvature="0" /><path
         d="m 133.828,30.11 c -0.644,0.793 -1.266,1.398 -1.863,1.813 -0.602,0.417 -1.227,0.625 -1.879,0.625 -0.602,0 -1.117,-0.145 -1.539,-0.434 -0.422,-0.285 -0.766,-0.664 -1.027,-1.133 -0.266,-0.469 -0.458,-1 -0.575,-1.594 -0.121,-0.593 -0.179,-1.199 -0.179,-1.808 0,-0.653 0.046,-1.289 0.148,-1.914 0.102,-0.621 0.277,-1.172 0.527,-1.657 0.247,-0.484 0.579,-0.875 0.993,-1.164 0.41,-0.293 0.929,-0.437 1.55,-0.437 0.317,0 0.621,0.043 0.914,0.129 0.293,0.086 0.594,0.23 0.899,0.429 0.308,0.2 0.629,0.461 0.965,0.782 0.336,0.32 0.691,0.715 1.066,1.187 z m 2.391,-9.117 c 0,-0.078 -0.02,-0.145 -0.051,-0.203 -0.035,-0.055 -0.094,-0.102 -0.176,-0.137 -0.078,-0.031 -0.187,-0.059 -0.324,-0.078 -0.133,-0.02 -0.297,-0.027 -0.488,-0.027 -0.2,0 -0.371,0.007 -0.504,0.027 -0.133,0.019 -0.246,0.047 -0.332,0.078 -0.086,0.035 -0.149,0.082 -0.188,0.141 -0.035,0.058 -0.054,0.125 -0.054,0.203 v 1.718 c -0.684,-0.734 -1.387,-1.312 -2.122,-1.722 -0.734,-0.414 -1.535,-0.617 -2.41,-0.617 -0.945,0 -1.758,0.183 -2.425,0.55 -0.672,0.372 -1.215,0.872 -1.633,1.497 -0.418,0.628 -0.723,1.367 -0.914,2.214 -0.192,0.848 -0.286,1.743 -0.286,2.684 0,1.109 0.118,2.113 0.36,3.008 0.238,0.898 0.594,1.664 1.062,2.293 0.469,0.636 1.051,1.121 1.746,1.461 0.696,0.34 1.497,0.511 2.407,0.511 0.758,0 1.449,-0.168 2.078,-0.496 0.629,-0.332 1.25,-0.82 1.863,-1.461 v 7.512 c 0,0.066 0.016,0.133 0.047,0.191 0.035,0.063 0.102,0.114 0.195,0.145 0.098,0.035 0.219,0.063 0.368,0.086 0.148,0.027 0.339,0.039 0.57,0.039 0.238,0 0.437,-0.012 0.59,-0.039 0.152,-0.023 0.273,-0.051 0.359,-0.086 0.086,-0.031 0.152,-0.082 0.195,-0.145 0.043,-0.062 0.067,-0.125 0.067,-0.191 V 20.993"
         style="fill:#ffffff;fill-opacity:1;fill-rule:nonzero;stroke:none"
         id="path1242"
         inkscape:connector-curvature="0" /></g></g></svg>